SplineFontDB: 3.0
FontName: Elegery
FullName: Elegery
FamilyName: Elegery
Weight: Medium
Copyright: Created by Guillaume Ayoub with FontForge 2.0 (http://fontforge.sf.net)
UComments: "2012-10-28: Created." 
Version: 0.1
ItalicAngle: 0
UnderlinePosition: -100
UnderlineWidth: 40
Ascent: 750
Descent: 250
LayerCount: 2
Layer: 0 0 "Arri+AOgA-re"  1
Layer: 1 0 "Avant"  0
XUID: [1021 779 1303216649 12687787]
FSType: 8
OS2Version: 0
OS2_WeightWidthSlopeOnly: 0
OS2_UseTypoMetrics: 1
CreationTime: 1351421788
ModificationTime: 1362694418
PfmFamily: 17
TTFWeight: 500
TTFWidth: 5
LineGap: 90
VLineGap: 0
OS2TypoAscent: 0
OS2TypoAOffset: 1
OS2TypoDescent: 0
OS2TypoDOffset: 1
OS2TypoLinegap: 90
OS2WinAscent: 0
OS2WinAOffset: 1
OS2WinDescent: 0
OS2WinDOffset: 1
HheadAscent: 0
HheadAOffset: 1
HheadDescent: 0
HheadDOffset: 1
OS2Vendor: 'PfEd'
Lookup: 1 0 0 "onum"  {"onum" ("oldstyle" ) } ['onum' ('DFLT' <'dflt' > 'latn' <'dflt' > ) ]
MarkAttachClasses: 1
DEI: 91125
LangName: 1033 
Encoding: UnicodeFull
UnicodeInterp: none
NameList: Adobe Glyph List
DisplaySize: -36
AntiAlias: 1
FitToEm: 0
WinInfo: 41 41 11
BeginPrivate: 1
BlueValues 41 [-240 -230 -10 0 420 430 650 660 730 740]
EndPrivate
TeXData: 1 0 0 346030 173015 115343 0 1048576 115343 783286 444596 497025 792723 393216 433062 380633 303038 157286 324010 404750 52429 2506097 1059062 262144
BeginChars: 1114112 350

StartChar: A
Encoding: 65 65 0
Width: 574
VWidth: 0
Flags: W
HStem: 0 25<5 78.0775 103.999 166 359 419.001 501.208 569> 275 25<176 349> 640 20G<314 339.333>
LayerCount: 2
Fore
SplineSet
524 25 m 2
 559 25 l 2
 569 25 569 25 569 15 c 10
 569 0 l 25
 359 0 l 25
 359 15 l 18
 359 25 359 25 369 25 c 2
 404 25 l 2
 416 25 424 28 419 45 c 9
 356 275 l 25
 170 275 l 17
 104 45 l 1
 100.333 32.667 104 25 117 25 c 2
 156 25 l 2
 166 25 166 25 166 15 c 10
 166 0 l 25
 5 0 l 25
 5 15 l 18
 5 25 5 25 15 25 c 2
 55 25 l 2
 70 25 77 33 82 45 c 1
 240 640 l 2
 244.146 655.613 294 660 334 660 c 9
 498 45 l 17
 502.25 32 509 25 524 25 c 2
259 630 m 25
 176 300 l 25
 349 300 l 25
 259 630 l 25
EndSplineSet
Validated: 1
EndChar

StartChar: I
Encoding: 73 73 1
Width: 221
VWidth: 0
Flags: W
HStem: 0 25<10 74.9393 145.076 205> 625 25<15 74.9237 145.076 211>
VStem: 75 70<25.0001 625>
LayerCount: 2
Fore
SplineSet
75 605 m 18
 75 625 75 625 55 625 c 2
 25 625 l 2
 15 625 15 625 15 635 c 10
 15 650 l 25
 211 650 l 29
 211 635 l 22
 211 625 211 625 201 625 c 6
 165 625 l 2
 145 625 145 625 145 605 c 10
 145 45 l 18
 145 25 145 25 165 25 c 2
 195 25 l 6
 205 25 205 25 205 15 c 14
 205 0 l 29
 10 0 l 25
 10 15 l 18
 10 25 10 25 20 25 c 2
 55 25 l 2
 75.252 25 75 25 75 45 c 10
 75 605 l 18
EndSplineSet
Validated: 1
EndChar

StartChar: H
Encoding: 72 72 2
Width: 591
VWidth: 0
Flags: W
HStem: 0 25<10 74.9393 145.076 205 380 444.939 515.076 575> 330 25<145 445> 625 25<15 74.9237 145.076 211 385 444.924 515.076 581>
VStem: 75 70<25.0001 330 355 625> 445 70<25.0001 330 355 625>
LayerCount: 2
Fore
SplineSet
75 605 m 2
 75 625 75 625 55 625 c 2
 25 625 l 6
 15 625 15 625 15 635 c 6
 15 650 l 5
 211 650 l 1
 211 635 l 2
 211 625 211 625 201 625 c 2
 165 625 l 2
 145 625 145 625 145 605 c 2
 145 355 l 1
 445 355 l 1
 445 605 l 2
 445 625 445 625 425 625 c 2
 395 625 l 2
 385 625 385 625 385 635 c 2
 385 650 l 1
 581 650 l 1
 581 635 l 2
 581 625 581 625 571 625 c 2
 535 625 l 2
 515 625 515 625 515 605 c 2
 515 45 l 2
 515 25 515 25 535 25 c 2
 545 25 l 2
 555 25 575 25 575 15 c 2
 575 0 l 1
 380 0 l 1
 380 15 l 2
 380 25 380 25 390 25 c 2
 425 25 l 2
 445.252 25 445 25 445 45 c 2
 445 330 l 1
 145 330 l 1
 145 45 l 2
 145 25 145 25 165 25 c 2
 195 25 l 2
 205 25 205 25 205 15 c 2
 205 0 l 1
 10 0 l 5
 10 15 l 6
 10 25 10 25 20 25 c 6
 55 25 l 2
 75.252 25 75 25 75 45 c 2
 75 605 l 2
EndSplineSet
Validated: 1
EndChar

StartChar: F
Encoding: 70 70 3
Width: 450
VWidth: 0
Flags: W
HStem: 0 25<30 74.9392 145.076 185> 330 25<145 329.924> 400 20G<335 355> 625 25<30 74.9237 145.076 399.924>
VStem: 75 70<25.0001 330 355 625> 330 25<270 329.921 355.06 420> 400 25<565 624.924>
LayerCount: 2
Fore
SplineSet
425 565 m 5
 410 565 l 6
 400 565 400 565 400 575 c 6
 400 605 l 2
 400 625 400 625 380 625 c 2
 165 625 l 2
 145 625 145 625 145 605 c 2
 145 355 l 1
 310 354.999 l 2
 330 354.999 330 354.748 330 375 c 2
 330 410 l 2
 330 420 330 420 340 420 c 2
 355 420 l 1
 355 270 l 1
 340 270 l 2
 330 270 330 270 330 280 c 2
 330 310 l 2
 330 330 330.001 329.997 310.001 329.997 c 2
 145 330 l 1
 145 45 l 2
 145 25 145 25 165 25 c 2
 175 25 l 2
 185 25 185 25 185 15 c 2
 185 0 l 1
 30 0 l 1
 30 15 l 2
 30 25 30 25 40 25 c 2
 55 25 l 2
 75.25 25.25 75 25 75 45 c 2
 75 605 l 2
 75 625 75 625 55 625 c 2
 40 625 l 2
 30 625 30 625 30 635 c 2
 30 650 l 1
 425 650 l 1
 425 565 l 5
EndSplineSet
Validated: 1
EndChar

StartChar: T
Encoding: 84 84 5
Width: 540
VWidth: 0
Flags: W
HStem: 0 25<170 234.939 305.076 365> 560 90<25 50 490 515> 620 30<50.0165 234.984 305.016 489.984>
VStem: 25 25<560 619.924> 235 70<25.0001 620> 490 25<560 619.924>
CounterMasks: 1 1c
LayerCount: 2
Fore
SplineSet
25 650 m 1xdc
 515 650 l 1
 515 560 l 1
 500 560 l 2xdc
 490 560 490 560 490 570 c 2
 490 600 l 2
 490 620 490 620 470 620 c 2
 325 620 l 2
 305 620 305 620 305 600 c 2
 305 45 l 2
 305 25 305 25 325 25 c 2
 335 25 l 2
 345 25 365 25 365 15 c 6
 365 0 l 5
 170 0 l 1
 170 15 l 2
 170 25 170 25 180 25 c 2
 215 25 l 2
 235.252 25 235 25 235 45 c 2
 235 600 l 2
 235 620 235 620 215 620 c 2
 70 620 l 2xbc
 50 620 50 620 50 600 c 2
 50 570 l 2
 50 560 50 560 40 560 c 2
 25 560 l 1
 25 650 l 1xdc
EndSplineSet
Validated: 1
EndChar

StartChar: E
Encoding: 69 69 6
Width: 455
VWidth: 0
Flags: W
HStem: 0 25<30 74.9392 145.076 404.924> 330 25<145 324.924> 400 20G<330 350> 625 25<30 74.9237 145.076 394.924>
VStem: 75 70<25 330 355 625> 325 25<270 329.921 355.06 420> 395 25<565 624.924> 405 25<25.0763 85>
LayerCount: 2
Fore
SplineSet
145 45 m 2xfe
 145 25 145 25 165 25 c 2
 385 25 l 2
 405 25 405 25 405 45 c 2
 405 75 l 6
 405 85 405 85 415 85 c 6
 430 85 l 5
 430 0 l 1xfd
 30 0 l 1
 30 15 l 2
 30 24.998 30 25 40 25 c 2
 55 25 l 2
 75.25 25.25 75 25 75 45 c 2
 75 605 l 2
 75 625 75 625 55 625 c 2
 40 625 l 2
 30 625 30 625 30 635 c 2
 30 650 l 1
 420 650 l 1
 420 565 l 1xfe
 405 565 l 2xfd
 395 565 395 565 395 575 c 2
 395 605 l 2
 395 625 395 625 375 625 c 2
 165 625 l 2
 145 625 145 625 145 605 c 2
 145 355 l 1
 305 354.999 l 2
 325 354.999 325 354.748 325 375 c 2
 325 410 l 2
 325 420 325 420 335 420 c 2
 350 420 l 1
 350 270 l 1
 335 270 l 2
 325 270 325 270 325 280 c 2
 325 310 l 2
 325 330 325.001 329.997 305.001 329.997 c 2
 145 330 l 1
 145 45 l 2xfe
EndSplineSet
Validated: 1
EndChar

StartChar: L
Encoding: 76 76 7
Width: 475
VWidth: 0
Flags: W
HStem: 0 25<10.0082 74.9393 145.076 424.924> 625 25<10 74.9237 145.076 210>
VStem: 75 70<25.0001 625> 425 25<25.0763 85>
LayerCount: 2
Fore
SplineSet
145 605 m 2
 145 45 l 2
 145 25 145 25 165 25 c 2
 405 25 l 2
 425 25 425 25 425 45 c 2
 425 75 l 2
 425 85 425 85 435 85 c 2
 450 85 l 1
 450 0 l 1
 10 0 l 1
 10 10 l 2
 10 19.998 10 25 20 25 c 2
 55 25 l 2
 75.252 25 75 25 75 45 c 2
 75 605 l 2
 75 625 75 625 55 625 c 2
 20 625 l 2
 10 625 10 625 10 635 c 2
 10 650 l 1
 210 650 l 5
 210 635 l 6
 210 625 210 625 200 625 c 6
 165 625 l 2
 145 625 145 625 145 605 c 2
EndSplineSet
Validated: 1
EndChar

StartChar: J
Encoding: 74 74 8
Width: 276
VWidth: 0
Flags: W
HStem: -240 30<-28.0183 54.0543> 625 25<70 129.924 200.076 266>
VStem: 130 70<-141.897 625>
LayerCount: 2
Fore
SplineSet
-75 -240 m 0
 -55 -150 l 1
 -49 -165 -30.0664 -210 0 -210 c 3
 124.016 -210 130 -142 130 -30 c 10
 130 605 l 18
 130 625 130 625 110 625 c 2
 80 625 l 2
 70 625 70 625 70 635 c 10
 70 650 l 25
 266 650 l 25
 266 635 l 18
 266 625 266 625 256 625 c 2
 220 625 l 2
 200 625 200 625 200 605 c 10
 200 -50 l 18
 200 -114 186 -239 -75 -240 c 0
EndSplineSet
Validated: 1
EndChar

StartChar: U
Encoding: 85 85 9
Width: 566
VWidth: 0
Flags: W
HStem: -10 25<232.202 362.675> 625 25<10 75.9237 146.076 206 405 464.924 490.076 556>
VStem: 76 70<96.8284 625> 465 25<133.127 624.924>
LayerCount: 2
Fore
SplineSet
490 220 m 18
 490 31 381.211 -10 296 -10 c 3
 181.99 -10 76 37 76 200 c 10
 76 605 l 18
 76 625 76 625 56 625 c 2
 20 625 l 2
 10 625 10 625 10 635 c 10
 10 650 l 25
 206 650 l 25
 206 635 l 18
 206 625 206 625 196 625 c 2
 166 625 l 2
 146 625 146 625 146 605 c 10
 146 220 l 18
 146 39 235 15 296 15 c 3
 351.009 15 465 37 465 220 c 10
 465 605 l 2
 465 625 465 625 445 625 c 2
 415 625 l 2
 405 625 405 625 405 635 c 10
 405 650 l 25
 556 650 l 29
 556 635 l 22
 556 625 556 625 546 625 c 6
 510 625 l 2
 490 625 490 625 490 605 c 10
 490 220 l 18
EndSplineSet
Validated: 1
EndChar

StartChar: B
Encoding: 66 66 10
Width: 505
VWidth: 0
Flags: W
HStem: 0 25<10.0082 74.9995 146.389 337.345> 330 25<145 287.559> 625 25<10.0082 74.9979 146.389 291.161>
VStem: 75 70<25.6525 330 355 624.348> 345 70<405.567 573.866> 395 70<74.8928 256.083>
LayerCount: 2
Fore
SplineSet
245 354.999 m 2xf8
 265 354.999 345 367.999 345 490 c 3
 345 588.001 311.5 625 225 625 c 2
 185 625 l 2
 165 625 145 625 145 605 c 2
 145 355 l 1
 245 354.999 l 2xf8
295 25 m 2
 353 25 395 81.8066 395 160 c 3xf4
 395 314.065 300 329.995 245.001 329.997 c 2
 145 330 l 1
 145 45 l 2
 145 25 165 25 185 25 c 2
 295 25 l 2
325 0 m 2
 10 0 l 1
 10 10 l 2
 10 19.998 10 20 20 20 c 2
 55 20 l 2
 75.252 20 75 20 75 40 c 2
 75 610 l 2
 75 630 75 630 55 630 c 2
 20 630 l 2
 10 630 10 630 10 640 c 2
 10 650 l 1
 255 650 l 2
 349.5 650 415 582.034 415 490 c 7xf8
 415 377.812 332 345 295 340 c 5
 331.919 339.097 465 322.007 465 160 c 3
 465 26.2981 341.667 0 325 0 c 2
EndSplineSet
Validated: 1
EndChar

StartChar: D
Encoding: 68 68 11
Width: 530
VWidth: 0
Flags: W
HStem: 0 25<10 74.9393 145.076 281.912> 625 25<10 74.9237 145.928 270.855>
VStem: 75 70<25.0001 624.993> 425 70<178.94 457.703>
LayerCount: 2
Fore
SplineSet
425 310 m 3
 425 584.017 287.5 625 185 625 c 2
 165 625 l 2
 145 625 145 615 145 595 c 2
 145 45 l 2
 145 25 145 25 165 25 c 2
 215 25 l 2
 306.5 25 425 83.998 425 310 c 3
215 0 m 2
 10 0 l 5
 10 15 l 6
 10 24.998 10 25 20 25 c 6
 55 25 l 2
 75.252 25 75 25 75 45 c 2
 75 605 l 2
 75 625 75 625 55 625 c 2
 20 625 l 6
 10 625 10 625 10 635 c 6
 10 650 l 5
 185 650 l 2
 360.5 650 495 552.019 495 310 c 3
 495 81.9805 346.5 0 215 0 c 2
EndSplineSet
Validated: 1
EndChar

StartChar: R
Encoding: 82 82 12
Width: 575
VWidth: 0
Flags: W
HStem: -10 25<424.966 559.758> 0 25<10 74.9393 145.076 225> 300 25<145 267.163> 625 25<10 74.9237 145.076 267.559>
VStem: 75 70<25.0001 300 325 625> 355 60<387.529 562.274>
LayerCount: 2
Fore
SplineSet
225 324.999 m 2x3c
 288.5 324.998 355 366.995 355 480 c 3
 355 590 275 625 195 625 c 2
 165 625 l 2
 145 625 145 625 145 605 c 2
 145 325 l 1
 225 324.999 l 2x3c
565 30 m 1
 565 5 l 1
 548.333 -4.66667 515.696 -10 485 -10 c 3xbc
 364.933 -10 368.5 299.992 225.001 299.997 c 2
 145 300 l 1
 145 45 l 2
 145 25 145 25 165 25 c 2
 200 25 l 2
 215 25 l 2x7c
 225 25 225 24.998 225 15 c 2xbc
 225 0 l 1
 10 0 l 1x7c
 10 15 l 2xbc
 10 24.998 10 25 20 25 c 2
 55 25 l 2x7c
 75.252 25 75 25 75 45 c 2
 75 605 l 2
 75 625 75 625 55 625 c 2
 20 625 l 2
 10 625 10 625 10 635 c 2
 10 650 l 1
 225 650 l 2
 283 650 415 633.117 415 480 c 3
 415 369 342 310 305 305 c 1
 400.5 303 452.798 15 505 15 c 3xbc
 512.84 15 551 19 565 30 c 1
EndSplineSet
Validated: 1
EndChar

StartChar: O
Encoding: 79 79 13
Width: 630
VWidth: 0
Flags: W
HStem: -10 25<256.86 376.82> 635 25<234.913 382.902>
VStem: 35 70<186.823 460.826> 525 70<181.972 457.212>
LayerCount: 2
Fore
SplineSet
315 15 m 3
 403 15 525 86 525 310 c 3
 525 527 447.004 635 315 635 c 3
 156.921 635 105 534.02 105 310 c 3
 105 81.9978 238.993 15 315 15 c 3
315 -10 m 3
 202.982 -10 35 92 35 310 c 3
 35 533.002 144.974 660 315 660 c 3
 483.027 660 595 523.021 595 310 c 3
 595 82.998 430.018 -10 315 -10 c 3
EndSplineSet
Validated: 1
EndChar

StartChar: G
Encoding: 71 71 14
Width: 600
VWidth: 0
Flags: W
HStem: -10 25<233.717 361.312> 240 25<310 439.924 510.076 570> 630 20G<460 485> 635 25<230.229 356.39>
VStem: 35 70<188.178 450.907> 440 70<115.743 240> 460 25<605.661 650>
LayerCount: 2
Fore
SplineSet
440 220 m 7xdc
 440 240 440 240 420 240 c 6
 320 240 l 6
 310 240 310 240 310 250 c 6
 310 265 l 5
 570 265 l 5
 570 250 l 6
 570 240 570 240 560 240 c 6
 530 240 l 6
 510 240 510 240 510 220 c 7
 510 93.999 431.866 -10 295 -10 c 3
 182.982 -10 35 108.994 35 310 c 3
 35 535.056 170.803 660 295 660 c 3
 345.09 660 428.5 625 440 605 c 1xdc
 455 605 460 610 460 625 c 1
 460 650 l 9
 485 650 l 25
 485 510 l 1xea
 476 555 381.052 635 295 635 c 3
 178.996 635 105 561.005 105 310 c 3
 105 90.9949 196.995 15 295 15 c 3
 409.504 15 440 84.9922 440 220 c 7xdc
EndSplineSet
Validated: 1
EndChar

StartChar: V
Encoding: 86 86 15
Width: 644
VWidth: 0
Flags: W
HStem: 0 21G<281.793 365.711> 625 25<5.00824 67.6507 154.717 209.992 478.008 540.001 565.922 638.992>
LayerCount: 2
Fore
SplineSet
540 605 m 2
 544.149 617.179 540 625 527 625 c 2
 488 625 l 2
 478 625 478 630 478 640 c 10
 478 650 l 25
 639 650 l 25
 639 640 l 18
 639 630 639 625 629 625 c 2
 589 625 l 2
 574 625 567 617 562 605 c 2
 359 0 l 25
 289 0 l 9
 71 605 l 18
 66.3975 617.879 60 625 45 625 c 2
 15 625 l 6
 5 625 5 630 5 640 c 14
 5 650 l 29
 210 650 l 25
 210 640 l 18
 210 630 210 625 200 625 c 2
 170 625 l 2
 158 625 148.711 621.567 155 605 c 10
 340 70 l 17
 356 70 l 0
 540 605 l 2
EndSplineSet
Validated: 1
EndChar

StartChar: P
Encoding: 80 80 16
Width: 480
VWidth: 0
Flags: W
HStem: 0 25<10 74.9393 145.076 225> 300 25<145 302.615> 625 25<10 74.9237 145.076 309.265>
VStem: 75 70<25.0001 300 325 625> 385 70<392.957 547.335>
LayerCount: 2
Fore
SplineSet
245 324.999 m 3
 265 324.999 385 334 385 460 c 3
 385 606.055 321 625 215 625 c 2
 165 625 l 2
 145 625 145 625 145 605 c 2
 145 325 l 1
 245 324.999 l 3
245.001 299.997 m 27
 145 300 l 1
 145 45 l 2
 145 25 145 25 165 25 c 2
 200 25 l 6
 215 25 l 6
 225 25 225 24.998 225 15 c 6
 225 0 l 5
 10 0 l 1
 10 15 l 2
 10 24.998 10 25 20 25 c 2
 55 25 l 2
 75.252 25 75 25 75 45 c 2
 75 605 l 2
 75 625 75 625 55 625 c 2
 20 625 l 2
 10 625 10 625 10 635 c 2
 10 650 l 1
 245 650 l 2
 353 650 455 586.062 455 460 c 3
 455 368.803 347.965 299.997 245.001 299.997 c 27
EndSplineSet
Validated: 1
EndChar

StartChar: C
Encoding: 67 67 17
Width: 515
VWidth: 0
Flags: W
HStem: -10 25<227.964 379.065> 630 20G<460 485> 635 25<229.628 356.39>
VStem: 35 70<166.827 442.791> 460 25<605.661 650>
LayerCount: 2
Fore
SplineSet
470 100 m 1xb8
 490 70 l 1
 433 0 334.747 -10 295 -10 c 3
 127.988 -10 35 121.994 35 310 c 3
 35 476.061 135.949 660 295 660 c 3xb8
 345.09 660 428.5 625 440 605 c 1
 455 605 460 610 460 625 c 1
 460 650 l 9
 485 650 l 25xd8
 485 510 l 1
 476 555 381.052 635 295 635 c 3
 147 635 105.439 488.332 105 310 c 5
 105 127.999 158.941 15 295 15 c 3
 335.852 15 457 31 470 100 c 1xb8
EndSplineSet
Validated: 1
EndChar

StartChar: Q
Encoding: 81 81 18
Width: 630
VWidth: 0
Flags: W
HStem: -210 70<550.348 706.786> -10 25<256.86 380.029> 119.997 25.003<310 336.007> 635 25<234.913 382.902>
VStem: 35 70<186.823 460.826> 525 70<182.189 457.212>
LayerCount: 2
Fore
SplineSet
315 -10 m 3
 202.982 -10 35 92 35 310 c 3
 35 533.002 144.974 660 315 660 c 3
 483.027 660 595 523.021 595 310 c 3
 595 153.972 517 62 431 19 c 1
 479 -57 535.335 -140 625 -140 c 3
 731.968 -140 801 -93.5 825 -80 c 1
 835 -90.001 l 1
 835 -90.001 731.8 -210 625 -210 c 3
 514.903 -210 452 -83 403 6 c 1
 373 -5 342.48 -10 315 -10 c 3
414 45 m 1
 474 84 525 165.194 525 310 c 3
 525 527 447.004 635 315 635 c 3
 156.921 635 105 534.02 105 310 c 3
 105 81.9978 238.993 15 315 15 c 3
 338.321 15 364 20 389 31 c 1
 361 81 337.338 119.997 310 119.997 c 1
 310 145 l 1
 348.485 145 380 99 414 45 c 1
EndSplineSet
Validated: 1
EndChar

StartChar: W
Encoding: 87 87 19
Width: 881
VWidth: 0
Flags: W
HStem: 0 21G<262.455 339.302 546.27 623.036> 625 25<5 67.7903 144.998 200 705 767.001 803.083 876>
LayerCount: 2
Fore
SplineSet
460 470 m 1
 602 60 l 1
 767 603 l 2
 770.762 615.304 767 625 754 625 c 2
 715 625 l 2
 705 625 705 625 705 635 c 2
 705 650 l 1
 876 650 l 1
 876 635 l 2
 876 625 876 625 866 625 c 2
 826 625 l 2
 811 625 802.293 615.576 799 603 c 2
 617 0 l 1
 553 0 l 1
 447 315 l 1
 332 0 l 1
 269 0 l 1
 71 605 l 2
 66.7461 617.998 60 625 45 625 c 2
 15 625 l 2
 5 625 5 625 5 635 c 2
 5 650 l 1
 200 650 l 1
 200 635 l 2
 200 625 200 625 190 625 c 2
 160 625 l 2
 148 625 139.668 621.896 145 605 c 2
 317 60 l 1
 428 365 l 1
 390.028 470.034 l 1
 460 470 l 1
EndSplineSet
Validated: 524289
EndChar

StartChar: Z
Encoding: 90 90 20
Width: 520
VWidth: 0
Flags: W
HStem: 0 25<104.996 464.924> 625 25<55.0763 415.003>
VStem: 30 25<565 624.924> 465 25<25.0763 85>
LayerCount: 2
Fore
SplineSet
30 10 m 2
 30 26.667 30.167 39.5 35 45 c 1
 415 605 l 2
 426.231 621.552 420 625 400 625 c 2
 75 625 l 2
 55 625 55 625 55 605 c 2
 55 575 l 2
 55 565 55 565 45 565 c 2
 30 565 l 1
 30 650 l 1
 490 650 l 1
 490 625 l 2
 490 615.333 488.68 610.423 485 605 c 2
 105 45 l 2
 93.083 27.2822 100.002 25 120 25 c 2
 445 25 l 2
 465 25 465 25 465 45 c 2
 465 75 l 6
 465 85 465 85 475 85 c 6
 490 85 l 5
 490 0 l 1
 30 0 l 1
 30 10 l 2
EndSplineSet
Validated: 1
EndChar

StartChar: M
Encoding: 77 77 21
Width: 775
VWidth: 0
Flags: W
HStem: 0 25<10 79.2299 105.994 175 555 624.311 695.661 765> 625 25<10 79.0056 695.994 765>
VStem: 80 25<25.9944 595> 625 70<25.0044 595>
LayerCount: 2
Fore
SplineSet
765 650 m 5
 765 635 l 6
 765 625 765 625 755 625 c 6
 715 625 l 2
 702 625 695 618 695 605 c 2
 695 45 l 2
 695 31 700 25 715 25 c 2
 755 25 l 6
 765 25 765 25 765 15 c 6
 765 0 l 5
 555 0 l 1
 555 15 l 2
 555 25 555 25 565 25 c 2
 605 25 l 2
 617 25 625 27 625 45 c 2
 625 595 l 1
 357 0 l 1
 105 595 l 1
 105 45 l 2
 105 32 112 25 125 25 c 2
 165 25 l 2
 175 25 175 25 175 15 c 2
 175 0 l 1
 10 0 l 1
 10 15 l 2
 10 25 10 25 20 25 c 2
 60 25 l 2
 75 25 80 32 80 45 c 2
 80 605 l 2
 80 618 73 625 60 625 c 2
 20 625 l 2
 10 625 10 625 10 635 c 2
 10 650 l 1
 155 650 l 1
 380 110 l 1
 625 650 l 1
 765 650 l 5
EndSplineSet
Validated: 1
EndChar

StartChar: N
Encoding: 78 78 22
Width: 590
VWidth: 0
Flags: W
HStem: -10 21G<496.612 510> 0 25<10 79.2299 105.994 175> 625 25<10 79.0056 415 484.006 510.77 580>
VStem: 80 25<25.9944 595> 485 25<140 624.006>
LayerCount: 2
Fore
SplineSet
485 140 m 1x78
 485 605 l 2
 485 618 478 625 465 625 c 2
 425 625 l 2
 415 625 415 625 415 635 c 2
 415 650 l 1
 580 650 l 5
 580 635 l 6
 580 625 580 625 570 625 c 6
 530 625 l 2
 515 625 510 618 510 605 c 2
 510 -10 l 25xb8
 105 595 l 1
 105 45 l 2
 105 32 112 25 125 25 c 2
 165 25 l 2
 175 25 175 25 175 15 c 2
 175 0 l 1
 10 0 l 1
 10 15 l 2
 10 25 10 25 20 25 c 2
 60 25 l 2
 75 25 80 32 80 45 c 2
 80 605 l 2
 80 618 73 625 60 625 c 2
 20 625 l 2
 10 625 10 625 10 635 c 2
 10 650 l 1
 145 650 l 1
 485 140 l 1x78
EndSplineSet
Validated: 1
EndChar

StartChar: S
Encoding: 83 83 23
Width: 495
VWidth: 0
Flags: W
HStem: -10 25<184.134 326.145> 635 25<176.92 300.407>
VStem: 35 60<426.923 565.304> 405 60<80.0558 204.746> 415 25<595.661 640>
LayerCount: 2
Fore
SplineSet
230 -10 m 3xf0
 190 -10 70 16 25 100 c 1
 85 140 l 1
 85 70 189 15 230 15 c 1
 311 15 405 27.9824 405 140 c 3xf0
 405 231.006 300 269 240 290 c 1
 174 311 35 350.996 35 490 c 3
 35 611 170 660 240 660 c 3
 310 660 384 615 395 595 c 1
 410 595 415 600 415 615 c 1
 415 640 l 9
 440 640 l 25
 440 500 l 1xe8
 431 545 329.006 635 240 635 c 3
 176.969 635 95 599.051 95 510 c 3
 95 391.999 179.5 381 240 360 c 1
 306.5 339 465 288.004 465 160 c 3
 465 23.9961 331 -10 230 -10 c 3xf0
EndSplineSet
Validated: 1
EndChar

StartChar: K
Encoding: 75 75 24
Width: 590
VWidth: 0
Flags: W
HStem: 0 25<10 74.9237 145.076 205 360 425.004 511.511 585> 625 25<10 74.9237 145.076 211 354 426.003 470.946 550>
VStem: 75 70<25.0001 248 290 625>
LayerCount: 2
Fore
SplineSet
253 368 m 1
 505 45 l 2
 517.209 29.3516 525 25 545 25 c 2
 555 25 l 2
 565 25 585 25 585 15 c 2
 585 0 l 1
 360 0 l 1
 360 15 l 2
 360 25 360 25 370 25 c 2
 405 25 l 2
 425 25 437.302 29.4258 425 45 c 2
 207 321 l 1
 145 248 l 1
 145 45 l 2
 145 25 145 25 165 25 c 2
 195 25 l 2
 205 25 205 25 205 15 c 2
 205 0 l 1
 10 0 l 1
 10 15 l 2
 10 25 10 25 20 25 c 2
 55 25 l 2
 75 25 75 25 75 45 c 2
 75 605 l 2
 75 625 75 625 55 625 c 2
 20 625 l 2
 10 625 10 625 10 635 c 2
 10 650 l 1
 211 650 l 1
 211 635 l 2
 211 625 211 625 201 625 c 2
 165 625 l 2
 145 625 145 625 145 605 c 2
 145 290 l 1
 426 605 l 2
 434.958 615.042 426 625 413 625 c 2
 364 625 l 6
 354 625 354 625 354 635 c 6
 354 650 l 5
 550 650 l 1
 550 635 l 2
 550 625 550 625 540 625 c 2
 500 625 l 2
 485 625 471.919 615.066 463 605 c 2
 253 368 l 1
EndSplineSet
Validated: 1
EndChar

StartChar: Y
Encoding: 89 89 25
Width: 580
VWidth: 0
Flags: W
HStem: 0 25<195 259.924 330.076 390> 625 25<5 80.1269 164.997 230 396 468.28 493.707 575>
VStem: 260 70<25.0001 290>
LayerCount: 2
Fore
SplineSet
165 605 m 2
 326 323 l 1
 468 605 l 2
 474.162 617.454 468 625 455 625 c 2
 406 625 l 2
 396 625 396 625 396 635 c 2
 396 650 l 1
 575 650 l 1
 575 635 l 2
 575 625 575 625 565 625 c 2
 525 625 l 2
 510 625 493.957 617.063 488 605 c 2
 330 290 l 1
 330 45 l 2
 330 25 330 25 350 25 c 2
 380 25 l 2
 390 25 390 25 390 15 c 2
 390 0 l 1
 195 0 l 1
 195 15 l 2
 195 25 195 25 205 25 c 2
 240 25 l 2
 260 25 260 25 260 45 c 2
 260 290 l 1
 85 605 l 2
 75.9443 623.111 65 625 45 625 c 2
 15 625 l 6
 5 625 5 625 5 635 c 6
 5 650 l 5
 230 650 l 1
 230 635 l 2
 230 625 230 625 220 625 c 2
 185 625 l 2
 165 625 155.646 621.675 165 605 c 2
EndSplineSet
Validated: 1
EndChar

StartChar: X
Encoding: 88 88 26
Width: 560
VWidth: 0
Flags: W
HStem: 0 25<5 86.06 116.686 189 320 385.003 480.041 555> 625 25<15 90.0678 174.997 240 371 443.321 473.986 555>
LayerCount: 2
Fore
SplineSet
250 306.999 m 1
 95 605 l 2
 85.7773 623.029 75 625 55 625 c 2
 25 625 l 6
 15 625 15 625 15 635 c 6
 15 650 l 5
 240 650 l 1
 240 635 l 2
 240 625 240 625 230 625 c 2
 195 625 l 2
 175 625 166.422 622.087 175 605 c 2
 298 365 l 1
 443 605 l 2
 450.078 616.959 443 625 430 625 c 2
 381 625 l 2
 371 625 371 625 371 635 c 2
 371 650 l 1
 555 650 l 1
 555 635 l 2
 555 625 555 625 545 625 c 2
 505 625 l 2
 490 625 474.633 616.705 468 605 c 2
 314.999 339.997 l 1
 475 45 l 2
 484.531 27.1299 495 25 515 25 c 2
 545 25 l 2
 555 25 555 25 555 15 c 2
 555 0 l 1
 320 0 l 1
 320 15 l 2
 320 25 320 25 330 25 c 2
 365 25 l 2
 385 25 393.437 27.8428 385 45 c 2
 266 282 l 1
 117 45 l 2
 110.078 32.9492 117 25 130 25 c 2
 179 25 l 2
 189 25 189 25 189 15 c 2
 189 0 l 1
 5 0 l 5
 5 15 l 6
 5 25 5 25 15 25 c 6
 55 25 l 2
 70 25 85.4785 33.2344 92 45 c 2
 250 306.999 l 1
EndSplineSet
Validated: 1
EndChar

StartChar: c
Encoding: 99 99 27
Width: 445
VWidth: 0
Flags: W
HStem: -10 25<196.744 306.042> 405 25<189.73 302.792>
VStem: 30 70<103.494 323.601>
LayerCount: 2
Fore
SplineSet
250 430 m 3
 290 430 374.5 406 405 351 c 1
 375 281 l 1
 368 344 324.169 405 250 405 c 3
 152.5 405 100 337.062 100 210 c 3
 100 82.9844 171 15 250 15 c 3
 291 15 356 42 389 93 c 1
 405 70 l 1
 348 0 290 -10 250 -10 c 3
 98 -10 30 82.8584 30 210 c 3
 30 351.057 97 430 250 430 c 3
EndSplineSet
Validated: 1
EndChar

StartChar: o
Encoding: 111 111 28
Width: 500
VWidth: 0
Flags: W
HStem: -10 25<207.267 301.425> 405 25<196.3 297.662>
VStem: 40 70<115.16 315.433> 390 70<101.723 312.748>
LayerCount: 2
Fore
SplineSet
250 405 m 3
 173.679 405 110 340 110 210 c 3
 110 107 180.5 15 250 15 c 3
 319.5 15 390 76 390 210 c 3
 390 321.288 326.321 405 250 405 c 3
250 -10 m 3
 140.498 -10 40 66.9961 40 210 c 3
 40 351.032 131.488 430 250 430 c 3
 366.501 430 460 360.003 460 210 c 3
 460 59.9971 363.501 -10 250 -10 c 3
EndSplineSet
Validated: 1
EndChar

StartChar: e
Encoding: 101 101 29
Width: 475
VWidth: 0
Flags: W
HStem: -10 25<199.158 331.831> 220 25<112.67 374.092> 405 25<192.02 300.514>
VStem: 40 70<108.354 322.398> 374.092 60.908<245 325.104>
LayerCount: 2
Fore
SplineSet
435 220 m 1
 111.988 220 l 1
 110.621 206.755 110 208.286 110 195 c 3
 110 75.9834 180.5 15 250 15 c 3
 290.852 15 376.5 27 409 78 c 1
 425 60 l 1
 368 -10 289.747 -10 250 -10 c 3
 139.995 -10 40 73.9766 40 210 c 3
 40 338.009 103.486 430 250 430 c 3
 319.507 430 434.5 380 435 220 c 1
374.092 245 m 1
 370.5 358 312.508 405 250 405 c 3
 165.494 405 120.5 346 112.67 245 c 1
 374.092 245 l 1
EndSplineSet
Validated: 1
EndChar

StartChar: l
Encoding: 108 108 30
Width: 240
VWidth: 0
Flags: W
HStem: 0 25<20 84.9393 155.076 220> 680 25<45 75.8> 710 20G<67 155>
VStem: 85 70<25.0001 680>
LayerCount: 2
Fore
SplineSet
155 45 m 22
 155 25 155 25 175 25 c 6
 210 25 l 6
 220 25 220 25 220 15 c 14
 220 0 l 29
 20 0 l 29
 20 15 l 22
 20 25 20 25 30 25 c 6
 65 25 l 6
 85.252 25 85 25 85 45 c 14
 85 660 l 18
 85 680 85 680 65 680 c 2
 55 680 l 2
 45 680 45 680 45 690 c 10
 45 705 l 25
 155 730 l 25
 155 45 l 22
EndSplineSet
Validated: 1
EndChar

StartChar: r
Encoding: 114 114 31
Width: 420
VWidth: 0
Flags: W
HStem: 0 20<10 74.7906 145.209 210> 370 25<35 65.8> 400 20G<57 145> 405 25<205.716 285.194>
VStem: 75 70<20.0001 364.537>
LayerCount: 2
Fore
SplineSet
145 310 m 2xd8
 145 40 l 2
 145 20 145 20 165 20 c 2
 200 20 l 2
 210 20 210 20 210 10 c 2
 210 0 l 1
 10 0 l 1
 10 10 l 2
 10 20 10 20 20 20 c 2
 55 20 l 2
 75 20 75 20 75 40 c 2
 75 350 l 2
 75 370 75 370 55 370 c 2
 45 370 l 2
 35 370 35 370 35 380 c 2
 35 395 l 1
 145 420 l 1xe8
 145 373 l 1
 149 392 212 429 255 430 c 0
 283 430 380 412 410 331 c 1
 340 311 l 1
 328 384 269 405 245 405 c 3
 211 405 145 370 145 310 c 2xd8
EndSplineSet
Validated: 1
EndChar

StartChar: dotlessi
Encoding: 305 305 32
Width: 235
VWidth: 0
Flags: W
HStem: 0 25<20 84.9393 155.076 215> 370 25<45 75.8> 400 20G<67 155>
VStem: 85 70<25.0001 370>
LayerCount: 2
Fore
SplineSet
155 45 m 18
 155 25 155 25 175 25 c 2
 205 25 l 2
 215 25 215 25 215 15 c 10
 215 0 l 25
 20 0 l 25
 20 15 l 18
 20 25 20 25 30 25 c 2
 65 25 l 2
 85.252 25 85 25 85 45 c 10
 85 350 l 18
 85 370 85 370 65 370 c 2
 55 370 l 2
 45 370 45 370 45 380 c 10
 45 395 l 25
 155 420 l 25
 155 45 l 18
EndSplineSet
Validated: 1
EndChar

StartChar: n
Encoding: 110 110 33
Width: 495
VWidth: 0
Flags: W
HStem: 0 25<10 74.9237 145.076 210 290 354.924 425.076 490> 370 25<35 65.8> 400 20G<57 145> 405 25<209.645 299.641>
VStem: 75 70<25.0001 360.19> 355 70<25.0001 367.936>
LayerCount: 2
Fore
SplineSet
425 310 m 2xdc
 425 45 l 2
 425 25 425 25 445 25 c 2
 480 25 l 2
 490 25 490 25 490 15 c 2
 490 0 l 1
 290 0 l 1
 290 15 l 2
 290 25 290 25 300 25 c 2
 335 25 l 2
 355 25 355 25 355 45 c 2
 355 310 l 2
 355 382 279 405 255 405 c 3xdc
 221 405 145 369 145 310 c 2
 145 45 l 2
 145 25 145 25 165 25 c 2
 200 25 l 2
 210 25 210 25 210 15 c 2
 210 0 l 1
 10 0 l 1
 10 15 l 2
 10 25 10 25 20 25 c 2
 55 25 l 2
 75 25 75 25 75 45 c 2
 75 350 l 2
 75 370 75 370 55 370 c 2
 45 370 l 2
 35 370 35 370 35 380 c 2
 35 395 l 1
 145 420 l 1xec
 145 373 l 1
 149 395 213 430 255 430 c 3
 283 430 425 418.005 425 310 c 2xdc
EndSplineSet
Validated: 1
EndChar

StartChar: m
Encoding: 109 109 34
Width: 785
VWidth: 0
Flags: W
HStem: 0 25<10 74.9237 145.076 210 290 354.924 425.076 490 575 639.924 710.076 775> 370 25<35 65.8> 400 20G<57 145> 405 25<209.645 299.576 477.998 580.969>
VStem: 75 70<25.0001 360.19> 355 70<25.0001 367.807> 640 70<25.0001 364.636>
LayerCount: 2
Fore
SplineSet
425 45 m 2xde
 425 25 425 25 445 25 c 2
 480 25 l 2
 490 25 490 25 490 15 c 2
 490 0 l 1
 290 0 l 1
 290 15 l 2
 290 25 290 25 300 25 c 2
 335 25 l 2
 355 25 355 25 355 45 c 2
 355 310 l 2
 355 382 279 405 255 405 c 3xde
 221 405 145 369 145 310 c 2
 145 45 l 2
 145 25 145 25 165 25 c 2
 200 25 l 2
 210 25 210 25 210 15 c 2
 210 0 l 1
 10 0 l 1
 10 15 l 2
 10 25 10 25 20 25 c 2
 55 25 l 2
 75 25 75 25 75 45 c 2
 75 350 l 2
 75 370 75 370 55 370 c 2
 45 370 l 2
 35 370 35 370 35 380 c 2
 35 395 l 1
 145 420 l 1xee
 145 373 l 1
 149 395 213 430 255 430 c 3
 275 430 372 419 405 375 c 1
 411 397 494 430 535 430 c 3
 563 430 710 418.005 710 310 c 2
 710 45 l 2
 710 25 710 25 730 25 c 2
 765 25 l 2
 775 25 775 25 775 15 c 2
 775 0 l 1
 575 0 l 1
 575 15 l 2
 575 25 575 25 585 25 c 2
 620 25 l 2
 640 25 640 25 640 45 c 2
 640 310 l 2
 640 382 559 405 535 405 c 3
 497 405 431 380 425 348 c 1
 425 45 l 2xde
EndSplineSet
Validated: 1
EndChar

StartChar: p
Encoding: 112 112 35
Width: 490
VWidth: 0
Flags: W
HStem: -230 25<10 69.9393 140.076 210> -10 25<199.068 296.599> 370 25<30 60.8> 400 20G<52 140> 405 25<190.373 294.284>
VStem: 70 70<-205 41 54.1612 368.681> 380 70<99.9341 316.75>
LayerCount: 2
Fore
SplineSet
70 -185 m 2xee
 70 350 l 2
 70 370 70 370 50 370 c 2
 40 370 l 2
 30 370 30 370 30 380 c 2
 30 395 l 1
 140 420 l 1xf6
 140 390 l 1
 161 409 210 430 250 430 c 3
 367 430 450 344.001 450 210 c 3
 450 54.9023 364 -10 250 -10 c 3
 202.997 -10 140 30.6562 140 41 c 1
 140 -185 l 2
 140 -205.001 140 -205 160 -205 c 2
 200 -205 l 2
 210 -205 210 -205 210 -215 c 2
 210 -230 l 1
 10 -230 l 5
 10 -215 l 6
 10 -205 10 -205 20 -205 c 6
 50 -205 l 2
 70.252 -205 70 -205 70 -185 c 2xee
140 335 m 2
 140 100 l 2
 140 53 203 15 250 15 c 3
 320 15 380 90.9902 380 210 c 3
 380 315.001 326 405 250 405 c 3xee
 200 405 140 385 140 335 c 2
EndSplineSet
Validated: 1
EndChar

StartChar: b
Encoding: 98 98 36
Width: 490
VWidth: 0
Flags: W
HStem: -10 25<192.029 297.043> 0 21G<70 100> 405 25<205.454 296.192> 680 25<30 60.8> 710 20G<52 140>
VStem: 70 70<50.7703 351.777 360 680> 380 70<96.5504 318.68>
LayerCount: 2
Fore
SplineSet
140 360 m 1x7e
 152 407 219.85 430 250 430 c 3
 331.024 430 450 381.012 450 210 c 3
 450 32.9551 339.02 -10 240 -10 c 3xbe
 193 -10 152 16 130 40 c 1
 70 0 l 1
 70 660 l 2
 70 680 70 680 50 680 c 2
 40 680 l 2
 30 680 30 680 30 690 c 2
 30 705 l 1
 140 730 l 1
 140 360 l 1x7e
140 295 m 2
 140 100 l 2
 140 53 193 15 240 15 c 3
 351.005 15 380 120.978 380 210 c 3
 380 313 342.044 405 240 405 c 3
 200.949 405 140 345 140 295 c 2
EndSplineSet
Validated: 1
EndChar

StartChar: q
Encoding: 113 113 37
Width: 500
VWidth: 0
Flags: W
HStem: -230 25<280 349.924 420.076 480> -10 25<194.024 297.085> 400 20G<360 420> 405 25<191.385 316.105>
VStem: 40 70<98.741 312.085> 350 70<-205 30 47.1074 385.957>
LayerCount: 2
Fore
SplineSet
350 30 m 1xec
 329 13 280 -10 240 -10 c 3
 130 -10 40 69 40 200 c 3
 40 343 121 430 240 430 c 3xdc
 277 430 339 418 360 400 c 1
 420 420 l 1
 420 -185 l 2
 420 -205 420 -205 440 -205 c 2
 470 -205 l 2
 480 -205 480 -205 480 -215 c 2
 480 -230 l 1
 280 -230 l 5
 280 -215 l 6
 280 -205 280 -205 290 -205 c 6
 330 -205 l 2
 350 -205 350 -205 350 -185 c 2
 350 30 l 1xec
350 90 m 2
 350 345 l 2
 350 395 290 405 240 405 c 3
 164 405 110 327.016 110 200 c 3
 110 87.9824 170 15 240 15 c 3
 287 15 350 43 350 90 c 2
EndSplineSet
Validated: 1
EndChar

StartChar: period
Encoding: 46 46 39
Width: 200
VWidth: 0
Flags: W
HStem: -5 80<64.5238 134.136>
VStem: 60 80<0.193275 70.3151>
LayerCount: 2
Fore
SplineSet
100 -5 m 3
 70.7461 -5 60 20.2305 60 35 c 3
 60 52.75 72.249 75 100 75 c 3
 125.761 75 140 50.002 140 35 c 3
 140 22.7471 126.326 -5 100 -5 c 3
EndSplineSet
Validated: 1
EndChar

StartChar: f
Encoding: 102 102 40
Width: 310
VWidth: 0
Flags: W
HStem: 0 25<30 74.9392 145.076 190> 395 25<30 75 145 265> 715 25<189.498 299.037>
VStem: 75 70<25.0001 395 420 665.8>
LayerCount: 2
Fore
SplineSet
75 395 m 1
 30 395 l 1
 30 420 l 1
 75 420 l 1
 75 570 l 2
 75 724.013 185.994 740 265 740 c 3
 293 740 390 731 420 650 c 1
 350 630 l 1
 338 703 274 715 250 715 c 3
 191.69 715 145 689 145 630 c 2
 145 420 l 1
 265 420 l 1
 265 395 l 1
 145 395 l 1
 145 45 l 2
 145 25 145 25 165 25 c 2
 180 25 l 2
 190 25 190 25 190 15 c 2
 190 0 l 1
 30 0 l 1
 30 15 l 2
 30 25 30 25 40 25 c 2
 55 25 l 2
 75.25 25.25 75 25 75 45 c 2
 75 395 l 1
EndSplineSet
Validated: 1
EndChar

StartChar: h
Encoding: 104 104 41
Width: 515
VWidth: 0
Flags: W
HStem: 0 25<10 74.9237 145.076 210 310 374.924 445.076 510> 405 25<220.706 323.62> 680 25<35 65.8> 710 20G<57 145>
VStem: 75 70<25.0001 354.337 373 680> 375 70<25.0001 371.201>
LayerCount: 2
Fore
SplineSet
445 310 m 2
 445 45 l 2
 445 25 445 25 465 25 c 2
 500 25 l 2
 510 25 510 25 510 15 c 2
 510 0 l 1
 310 0 l 1
 310 15 l 2
 310 25 310 25 320 25 c 2
 355 25 l 2
 375 25 375 25.001 375 45 c 2
 375 330 l 2
 375 392 289 405 265 405 c 3
 231 405 145 364 145 305 c 2
 145 45 l 2
 145 25 145 25 165 25 c 2
 200 25 l 2
 210 25 210 25 210 15 c 2
 210 0 l 1
 10 0 l 1
 10 15 l 2
 10 25 10 25 20 25 c 2
 55 25 l 2
 75 25 75 25 75 45 c 2
 75 660 l 2
 75 680 75 680 55 680 c 2
 45 680 l 2
 35 680 35 680 35 690 c 2
 35 705 l 1
 145 730 l 1
 145 373 l 1
 149 395 223 430 265 430 c 3
 293 430 445 418.005 445 310 c 2
EndSplineSet
Validated: 1
EndChar

StartChar: d
Encoding: 100 100 42
Width: 500
VWidth: 0
Flags: W
HStem: -10 25<186.173 295.829> 0 25<425.076 490> 405 25<188.798 296.484> 680 25<315 345.8> 710 20G<337 425>
VStem: 40 70<86.8047 296.778> 355 70<25 30 54.1612 367.228 380 680>
LayerCount: 2
Fore
SplineSet
355 100 m 2xbe
 355 315 l 2
 355 365 305.507 405 235 405 c 3
 138.479 405 110 276.006 110 190 c 3
 110 87.9561 147.495 15 245 15 c 3
 292 15 355 53 355 100 c 2xbe
355 0 m 17x7e
 355 30 l 1
 334 13 285 -10 245 -10 c 3xbe
 124.5 -10 40 52.999 40 190 c 3
 40 331 144.5 430 225 430 c 3
 295.528 430 335 410 355 380 c 1
 355 660 l 2
 355 680 355 680 335 680 c 2
 325 680 l 2
 315 680 315 680 315 690 c 10
 315 705 l 25
 425 730 l 25
 425 45 l 18
 425 25 425 25 445 25 c 2
 480 25 l 2x7e
 490 25 490 25 490 15 c 10xbe
 490 0 l 25
 355 0 l 17x7e
EndSplineSet
Validated: 1
EndChar

StartChar: uni0237
Encoding: 567 567 44
Width: 190
VWidth: 0
Flags: W
HStem: -240 30<-48.0183 7.92789> 370 25<30 60.8> 400 20G<52 140>
VStem: 70 70<-138.242 370>
LayerCount: 2
Fore
SplineSet
70 -30 m 10
 70 350 l 18
 70 371 70 370 50 370 c 2
 40 370 l 2
 30 370 30 370 30 380 c 10
 30 395 l 25
 140 420 l 26
 140 -50 l 18
 140 -114 106 -240 -95 -240 c 0
 -75 -150 l 1
 -69 -165 -50.0664 -210 -20 -210 c 3
 54.1689 -210 70 -156 70 -30 c 10
EndSplineSet
Validated: 1
EndChar

StartChar: u
Encoding: 117 117 45
Width: 475
VWidth: 0
Flags: W
HStem: -10 25<190.393 290.748> 0 25<400.076 465> 370 25<30 60.8 290 320.8> 400 20G<52 140 312 400>
VStem: 70 70<56.689 370> 330 70<25 30 39.9763 370>
LayerCount: 2
Fore
SplineSet
70 350 m 18xbc
 70 370 70 370 50 370 c 2
 40 370 l 2
 30 370 30 370 30 380 c 10
 30 395 l 25
 140 420 l 25
 140 160 l 2
 140 91 153.494 15 240 15 c 3xbc
 287 15 330 43 330 90 c 2
 330 350 l 2
 330 370 330 370 310 370 c 2
 300 370 l 2
 290 370 290 370 290 380 c 10
 290 395 l 25
 400 420 l 25
 400 45 l 18
 400 25 400 25 420 25 c 2
 455 25 l 2x7c
 465 25 465 25 465 15 c 10xbc
 465 0 l 25
 330 0 l 17x7c
 330 30 l 1
 317 8 280 -10 240 -10 c 3
 92.4966 -10 70 70 70 160 c 2
 70 350 l 18xbc
EndSplineSet
Validated: 1
EndChar

StartChar: t
Encoding: 116 116 46
Width: 385
VWidth: 0
Flags: W
HStem: -10 25<183.828 281.784> 395 25<30 67.2353 140 335>
VStem: 70 70<50.3134 395> 115 25<472.991 520>
LayerCount: 2
Fore
SplineSet
140 420 m 1xd0
 335 420 l 1
 335 395 l 1
 140 395 l 1
 140 170 l 2
 140 89 153.5 15 223 15 c 3
 251.071 15 318 27 339 83 c 1
 355 60 l 1
 328 0 251.071 -10 223 -10 c 3
 112.995 -10 70 35 70 170 c 2
 70 395 l 1xe0
 40 395 l 2
 30 395 30 395 30 405 c 2
 30 420 l 3
 73.626 420 115 470.997 115 520 c 0
 140 520 l 1
 140 420 l 1xd0
EndSplineSet
Validated: 1
EndChar

StartChar: a
Encoding: 97 97 47
Width: 455
VWidth: 0
Flags: W
HStem: -10 25<136.487 226.977> 0 25<380.076 445> 225 25<272.894 310> 405 25<178.807 284.076>
VStem: 40 70<35.7282 148.24> 310 70<25 60 74.8206 225 244.613 389.131>
LayerCount: 2
Fore
SplineSet
40 100 m 3xbc
 40 183.006 209 222 310 250 c 1
 310 320 l 2
 310 356 307.007 405 240 405 c 3
 147.994 405 103.5 337 80 270 c 1
 60 340 l 1
 87 391 161 430 230 430 c 3
 357.004 430 380 387 380 340 c 2
 380 45 l 2
 380 25 380 25 400 25 c 2
 435 25 l 2x7c
 445 25 445 25 445 15 c 2xbc
 445 0 l 1
 310 0 l 1x7c
 310 60 l 1
 297 38 261.007 -10 190 -10 c 3
 92.9176 -10 40 32.9925 40 100 c 3xbc
310 225 m 1
 193 189 110 174.002 110 100 c 3
 110 52.9971 118.972 15 190 15 c 3xbc
 223.241 15 310 73 310 120 c 2
 310 225 l 1
EndSplineSet
Validated: 1
EndChar

StartChar: v
Encoding: 118 118 48
Width: 459
VWidth: 0
Flags: W
HStem: 0 21G<204.747 271.92> 395 25<5 72.6264 139.775 200 293 355.001 380.382 454>
LayerCount: 2
Fore
SplineSet
355 375 m 2
 358.667 387.333 355 395 342 395 c 2
 303 395 l 2
 293 395 293 395 293 405 c 10
 293 420 l 25
 454 420 l 25
 454 405 l 18
 454 395 454 395 444 395 c 2
 404 395 l 2
 389 395 380.689 387.465 377 375 c 2
 266 0 l 25
 212 0 l 9
 76 375 l 18
 71.3369 387.858 65 395 50 395 c 2
 15 395 l 2
 5 395 5 395 5 405 c 10
 5 420 l 25
 200 420 l 25
 200 405 l 18
 200 395 200 395 190 395 c 2
 155 395 l 2
 143 395 135 392 140 375 c 10
 255 50 l 17
 355 375 l 2
EndSplineSet
Validated: 1
EndChar

StartChar: w
Encoding: 119 119 49
Width: 659
VWidth: 0
Flags: W
HStem: 0 21G<192.44 263.68 412.694 478.547> 395 25<5 72.7868 139.998 200 488 550.001 580.922 654>
LayerCount: 2
Fore
SplineSet
335 375 m 1
 360 375 l 1
 460 50 l 1
 550 375 l 2
 553.667 387.333 550 395 537 395 c 2
 498 395 l 2
 488 395 488 395 488 405 c 2
 488 420 l 1
 654 420 l 1
 654 405 l 2
 654 395 654 395 644 395 c 2
 604 395 l 2
 589 395 582 387 577 375 c 2
 473 0 l 1
 419 0 l 1
 334.3 268.647 l 1
 258 0 l 1
 199 0 l 1
 76 375 l 2
 71.7373 387.996 65 395 50 395 c 2
 15 395 l 2
 5 395 5 395 5 405 c 2
 5 420 l 1
 200 420 l 1
 200 405 l 2
 200 395 200 395 190 395 c 2
 155 395 l 2
 143 395 134.552 391.862 140 375 c 2
 245 50 l 1
 335 375 l 1
EndSplineSet
Validated: 524289
EndChar

StartChar: s
Encoding: 115 115 50
Width: 370
VWidth: 0
Flags: W
HStem: -10 25<127.996 227.176> 400 20G<285 310> 405 25<125.746 231.69>
VStem: 45 60<297.633 383.736> 275 60<46.5152 145.596> 285 25<405.841 420>
LayerCount: 2
Fore
SplineSet
170 -10 m 3xb8
 131.448 -10 45.5 10.5 25 70 c 1
 85 100 l 1
 85 48.5 129.997 15 170 15 c 3
 212 15 275 32.9697 275 100 c 3
 275 151 206 179 180 190 c 0
 148.356 203.388 45 251.167 45 320 c 3
 45 390.334 105.542 430 170 430 c 3
 213.333 430 253.5 420.5 265 405 c 1xb8
 280 405 285 412.25 285 420 c 9
 310 420 l 29
 310 310 l 5xd4
 301 355 244.502 405 170 405 c 3
 112.572 405 105 370.517 105 340 c 3
 105 306.44 146.601 275.182 180 260 c 0
 224 240 335 200 335 120 c 3
 335 24.9531 260.022 -10 170 -10 c 3xb8
EndSplineSet
Validated: 1
EndChar

StartChar: z
Encoding: 122 122 51
Width: 400
VWidth: 0
Flags: W
HStem: 0 25<104.996 344.924> 395 25<55.0763 295.004>
VStem: 30 25<335 394.924> 345 25<25.0763 85>
LayerCount: 2
Fore
SplineSet
30 10 m 2
 30 26.667 30.167 39.5 35 45 c 1
 295 375 l 2
 307.666 390.48 300 395 280 395 c 2
 75 395 l 2
 55 395 55 395 55 375 c 2
 55 345 l 2
 55 335 55 335 45 335 c 2
 30 335 l 1
 30 420 l 1
 370 420 l 1
 370 395 l 2
 370 385.333 369.056 380.148 365 375 c 2
 105 45 l 2
 91.6016 28.376 100.002 25 120 25 c 2
 325 25 l 2
 345 25 345 25 345 45 c 2
 345 75 l 6
 345 85 345 85 355 85 c 6
 370 85 l 5
 370 0 l 1
 30 0 l 1
 30 10 l 2
EndSplineSet
Validated: 1
EndChar

StartChar: y
Encoding: 121 121 52
Width: 510
VWidth: 0
Flags: W
HStem: -240 45<29.3642 104.713> 395 25<5 72.1465 139.998 200 344 405.001 430.335 505>
LayerCount: 2
Fore
SplineSet
250 0 m 13
 76 375 l 18
 70.1387 387.633 65 395 50 395 c 2
 15 395 l 2
 5 395 5 395 5 405 c 10
 5 420 l 25
 200 420 l 25
 200 405 l 18
 200 395 200 395 190 395 c 2
 155 395 l 2
 143 395 132.828 391.204 140 375 c 10
 275 70 l 17
 405 375 l 2
 408.209 387.235 408 395 395 395 c 2
 354 395 l 2
 344 395 344 395 344 405 c 10
 344 420 l 25
 505 420 l 25
 505 405 l 18
 505 395 505 395 495 395 c 2
 455 395 l 2
 440 395 430.238 387.229 427 375 c 2
 283 20 l 18
 218.193 -139.766 157 -240 -5 -240 c 0
 15 -150 l 1
 21 -165 39.9336 -195 70 -195 c 3
 118.042 -195 180 -149 250 0 c 13
EndSplineSet
Validated: 1
EndChar

StartChar: g
Encoding: 103 103 53
Width: 470
VWidth: 0
Flags: W
HStem: -240 25<154.992 286.84> -30 20G<71.5 100> 0 60<103.624 365.855> 125 25<171.193 272.979> 400 20G<404.628 426.667> 405 25<169.291 273.996>
VStem: 20 40<-149.841 -38.8645> 50 70<196.796 360.597> 50 35<82.0542 144.233> 320 70<187.389 352.801> 400 50<-139.629 -29.7122>
LayerCount: 2
Fore
SplineSet
89.7783 175.95 m 1xf8e0
 67.8252 201.63 50 210.971 50 280 c 3
 50 362 101.488 430 220 430 c 3xf560
 274.011 430 338 402 359 377 c 1
 370 393 389.255 408.613 420 420 c 1
 440 360 l 1
 413.01 355.562 386 349 384 321 c 1
 387.5 309 390 273.608 390 260 c 3
 390 224.986 373.029 125 220 125 c 3
 177.336 125 131.664 143.441 110.117 160.472 c 1
 90 140 85 135.396 85 110 c 3xf8e0
 85 61.9896 180.99 60 230 60 c 3
 333.586 60 450 41 450 -60 c 3
 450 -201 299.006 -240 210 -240 c 3
 82.9961 -240 20 -168 20 -110 c 3
 20 -32 63 -18 80 -10 c 1
 100 -20 l 1
 88 -24 60 -34.9922 60 -100 c 3xfa60
 60 -165.008 156.954 -215 210 -215 c 3
 288 -215 400 -173.904 400 -80 c 3
 400 0 297.966 0 210 0 c 3
 165 0 50 4 50 90 c 3
 50 122.951 69 149 89.7783 175.95 c 1xf8e0
220 405 m 3
 123.995 405 120 308.071 120 280 c 3
 120 253.923 123.979 150 220 150 c 3
 319.02 150 320 231 320 280 c 3
 320 326.174 316.005 405 220 405 c 3
EndSplineSet
Validated: 1
EndChar

StartChar: x
Encoding: 120 120 54
Width: 500
VWidth: 0
Flags: W
HStem: 0 25<20 103.921 140.647 213 278 338.003 417.128 490> 395 25<10 82.7481 161.997 222 277 349.34 386.635 470>
LayerCount: 2
Fore
SplineSet
221 200 m 25
 88 375 l 18
 80.1807 386.125 77 395 62 395 c 2
 20 395 l 6
 10 395 10 395 10 405 c 14
 10 420 l 29
 222 420 l 25
 222 405 l 18
 222 395 222 395 212 395 c 2
 177 395 l 2
 165 395 151.514 389.392 162 375 c 10
 256 246 l 17
 349 375 l 2
 356.489 385.388 349 395 336 395 c 2
 287 395 l 2
 277 395 277 395 277 405 c 10
 277 420 l 25
 470 420 l 25
 470 405 l 18
 470 395 470 395 460 395 c 2
 408 395 l 2
 393 395 388.593 385.311 381 375 c 2
 272 227 l 25
 412 45 l 18
 420.262 33.4336 423 25 438 25 c 2
 480 25 l 2
 490 25 490 25 490 15 c 10
 490 0 l 25
 278 0 l 25
 278 15 l 18
 278 25 278 25 288 25 c 2
 323 25 l 2
 335 25 348.498 30.6182 338 45 c 10
 238 182 l 17
 141 45 l 2
 133.227 34.0205 141 25 154 25 c 2
 203 25 l 2
 213 25 213 25 213 15 c 10
 213 0 l 25
 20 0 l 25
 20 15 l 18
 20 25 20 25 30 25 c 2
 82 25 l 2
 97 25 101.961 34.3037 109 45 c 2
 221 200 l 25
EndSplineSet
Validated: 1
EndChar

StartChar: k
Encoding: 107 107 55
Width: 500
VWidth: 0
Flags: W
HStem: 0 25<10 74.9393 145.076 210 270 335.003 416.373 495> 395 25<264 336.003 375.969 455> 680 25<35 65.8> 710 20G<57 145>
VStem: 75 70<25.0001 140 170 680>
LayerCount: 2
Fore
SplineSet
145 45 m 2
 145 25 145 25 165 25 c 2
 200 25 l 2
 210 25 210 25 210 15 c 2
 210 0 l 1
 10 0 l 1
 10 15 l 2
 10 25 10 25 20 25 c 2
 55 25 l 2
 75.252 25 75 25 75 45 c 2
 75 660 l 2
 75 680 75 680 55 680 c 2
 45 680 l 2
 35 680 35 680 35 690 c 2
 35 705 l 1
 145 730 l 1
 145 170 l 1
 336 375 l 2
 345 385 336 395 323 395 c 2
 274 395 l 2
 264 395 264 395 264 405 c 2
 264 420 l 1
 455 420 l 1
 455 405 l 2
 455 395 455 395 445 395 c 2
 405 395 l 2
 390 395 376.972 385.022 368 375 c 2
 257 251 l 1
 410 45 l 2
 421.836 29.0635 430 25 450 25 c 2
 485 25 l 2
 495 25 495 25 495 15 c 2
 495 0 l 1
 270 0 l 1
 270 15 l 2
 270 25 270 25 280 25 c 2
 315 25 l 2
 335 25 346.474 28.8027 335 45 c 2
 216 213 l 1
 145 140 l 1
 145 45 l 2
EndSplineSet
Validated: 1
EndChar

StartChar: hyphen
Encoding: 45 45 57
Width: 430
VWidth: 0
Flags: W
HStem: 180 50<60 370>
VStem: 60 310<180 230>
LayerCount: 2
Fore
SplineSet
60 230 m 5
 370 230 l 5
 370 180 l 5
 60 180 l 5
 60 230 l 5
EndSplineSet
Validated: 1
EndChar

StartChar: equal
Encoding: 61 61 58
Width: 480
VWidth: 0
Flags: W
HStem: 95 50<60 420> 265 50<60 420>
LayerCount: 2
Fore
SplineSet
60 145 m 1
 420 145 l 1
 420 95 l 1
 60 95 l 1
 60 145 l 1
60 315 m 1
 420 315 l 1
 420 265 l 1
 60 265 l 1
 60 315 l 1
EndSplineSet
Validated: 1
EndChar

StartChar: underscore
Encoding: 95 95 59
Width: 420
VWidth: 0
Flags: W
HStem: 0 50<60 360>
VStem: 60 300<0 50>
LayerCount: 2
Fore
SplineSet
60 50 m 1
 360 50 l 1
 360 0 l 1
 60 0 l 1
 60 50 l 1
EndSplineSet
Validated: 1
EndChar

StartChar: comma
Encoding: 44 44 61
Width: 220
VWidth: 0
Flags: W
HStem: -105 180
VStem: 100 60<-38.167 52.6823>
LayerCount: 2
Fore
SplineSet
60 -80 m 1
 97.2275 -54.7432 100 -17 100 0 c 3
 100 19 83 35 70 35 c 1
 70 54 95.333 75 120 75 c 3
 145.761 75 160 50.002 160 35 c 3
 160 -27.501 119.333 -74.5 60 -105 c 1
 60 -80 l 1
EndSplineSet
Validated: 1
EndChar

StartChar: quotesingle
Encoding: 39 39 63
Width: 180
VWidth: 0
Flags: W
HStem: 430 230<70 110>
VStem: 50 80<553.5 655.315>
LayerCount: 2
Fore
SplineSet
110 430 m 5
 70 430 l 5
 50 620 l 1
 50 637.75 62.249 660 90 660 c 3
 115.761 660 130 635.002 130 620 c 1
 110 430 l 5
EndSplineSet
Validated: 1
EndChar

StartChar: one
Encoding: 49 49 66
Width: 440
VWidth: 0
Flags: W
HStem: 0 25<155 219.939 290.076 355> 630 20G<254.348 290>
VStem: 220 70<25.0001 566.109>
LayerCount: 2
Fore
SplineSet
290 45 m 18
 290 25 290 25 310 25 c 2
 345 25 l 2
 355 25 355 25 355 15 c 10
 355 0 l 25
 155 0 l 25
 155 15 l 18
 155 25 155 25 165 25 c 2
 200 25 l 2
 220.252 25 220 25 220 45 c 10
 220 547 l 18
 220 567 217.576 576.541 200 567 c 2
 95 510 l 2
 86.0977 505.444 85 510 85 520 c 10
 85 535 l 25
 290 650 l 25
 290 45 l 18
EndSplineSet
Validated: 1
EndChar

StartChar: zero
Encoding: 48 48 67
Width: 440
VWidth: 0
Flags: W
HStem: -10 25<174.4 269.464> 635 25<170.856 267.589>
VStem: 40 70<133.311 511.533> 330 70<126.177 514.408>
LayerCount: 2
Fore
SplineSet
220 15 m 3
 308 15 330 86 330 310 c 3
 330 527 323.697 635 220 635 c 3
 116.98 635 110 534.02 110 310 c 3
 110 81.9978 143.993 15 220 15 c 3
220 -10 m 3
 107.982 -10 40 92 40 310 c 3
 40 533.002 90.9648 660 220 660 c 3
 355.093 660 400 523.021 400 310 c 3
 400 82.998 335.018 -10 220 -10 c 3
EndSplineSet
Validated: 1
EndChar

StartChar: seven
Encoding: 55 55 68
Width: 440
VWidth: 0
Flags: W
HStem: 0 21G<110 177.107> 625 25<75.0763 325.002>
VStem: 50 25<565 624.924>
LayerCount: 2
Fore
SplineSet
110 0 m 1
 325 605 l 2
 331.697 623.847 330 625 310 625 c 2
 95 625 l 2
 75 625 75 625 75 605 c 2
 75 575 l 2
 75 565 75 565 65 565 c 2
 50 565 l 1
 50 650 l 1
 390 650 l 1
 390 625 l 2
 390 615.333 387.194 611.175 385 605 c 2
 170 0 l 25
 110 0 l 1
EndSplineSet
Validated: 1
EndChar

StartChar: plus
Encoding: 43 43 69
Width: 430
VWidth: 0
Flags: W
HStem: 180 50<60 190 240 370>
VStem: 190 50<50 180 230 360>
LayerCount: 2
Fore
SplineSet
190 360 m 1
 240 360 l 5
 240 230 l 1
 370 230 l 1
 370 180 l 1
 240 180 l 1
 240 50 l 1
 190 50 l 1
 190 180 l 1
 60 180 l 1
 60 230 l 1
 190 230 l 1
 190 360 l 1
EndSplineSet
Validated: 1
EndChar

StartChar: slash
Encoding: 47 47 70
Width: 435
VWidth: 0
Flags: W
HStem: -230 21G<0 62.9167> 710 20G<372.083 435>
LayerCount: 2
Fore
SplineSet
435 730 m 29
 55 -230 l 29
 0 -230 l 5
 380 730 l 29
 435 730 l 29
EndSplineSet
Validated: 1
EndChar

StartChar: backslash
Encoding: 92 92 71
Width: 435
VWidth: 0
Flags: W
HStem: -230 21G<372.083 435> 710 20G<0 62.9167>
LayerCount: 2
Fore
SplineSet
0 730 m 25
 55 730 l 25
 435 -230 l 1
 380 -230 l 25
 0 730 l 25
EndSplineSet
Validated: 1
EndChar

StartChar: bar
Encoding: 124 124 72
Width: 220
VWidth: 0
Flags: W
HStem: -230 21G<85 135> 710 20G<85 135>
VStem: 85 50<-230 730>
LayerCount: 2
Fore
SplineSet
135 730 m 25
 135 -230 l 17
 85 -230 l 13
 85 730 l 21
 135 730 l 25
EndSplineSet
Validated: 1
EndChar

StartChar: bracketleft
Encoding: 91 91 77
Width: 305
VWidth: 0
Flags: W
HStem: -230 25<130.076 265> 705 25<130.076 265>
VStem: 70 60<-205 705>
LayerCount: 2
Fore
SplineSet
265 -230 m 1
 70 -230 l 29
 70 730 l 29
 265 730 l 1
 265 705 l 25
 150 705 l 2
 130 705 130 705 130 685 c 2
 130 -185 l 2
 130 -205 130 -205 150 -205 c 2
 265 -205 l 17
 265 -230 l 1
EndSplineSet
Validated: 1
EndChar

StartChar: greater
Encoding: 62 62 78
Width: 375
VWidth: 0
Flags: W
VStem: 100 175
LayerCount: 2
Fore
SplineSet
275 209 m 1
 125 34 l 1
 100 44 l 1
 195.931 209 l 1
 100 374 l 1
 125 384 l 1
 275 209 l 1
EndSplineSet
Validated: 1
EndChar

StartChar: less
Encoding: 60 60 79
Width: 375
VWidth: 0
Flags: W
VStem: 100 175
LayerCount: 2
Fore
SplineSet
100 209 m 5
 250 384 l 5
 275 374 l 5
 179.069 209 l 5
 275 44 l 5
 250 34 l 5
 100 209 l 5
EndSplineSet
Validated: 1
EndChar

StartChar: bracketright
Encoding: 93 93 80
Width: 305
VWidth: 0
Flags: W
HStem: -230 25<40 174.924> 705 25<40 174.924>
VStem: 175 60<-205 705>
LayerCount: 2
Fore
SplineSet
40 -230 m 1
 40 -205 l 9
 155 -205 l 2
 175 -205 175 -205 175 -185 c 2
 175 685 l 2
 175 705 175 705 155 705 c 2
 40 705 l 25
 40 730 l 1
 235 730 l 29
 235 -230 l 29
 40 -230 l 1
EndSplineSet
Validated: 1
EndChar

StartChar: parenleft
Encoding: 40 40 81
Width: 330
VWidth: 0
Flags: W
HStem: -230 25<248.687 280> 705 25<244.756 280>
VStem: 60 70<56.2145 426.491>
LayerCount: 2
Fore
SplineSet
280 -230 m 21
 167.982 -230 60 12 60 230 c 3
 60 453.002 150.965 730 280 730 c 13
 280 705 l 21
 176.98 705 130 454.02 130 230 c 3
 130 1.99781 203.993 -205 280 -205 c 13
 280 -230 l 21
EndSplineSet
Validated: 524289
EndChar

StartChar: parenright
Encoding: 41 41 82
Width: 330
VWidth: 0
Flags: W
HStem: -230 25<50 81.3129> 705 25<50 85.2437>
VStem: 200 70<56.2146 426.491>
LayerCount: 2
Fore
SplineSet
50 -230 m 13
 50 -205 l 21
 126.007 -205 200 1.99805 200 230 c 3
 200 454.021 153.02 705 50 705 c 13
 50 730 l 21
 179.035 730 270 453.002 270 230 c 3
 270 12 162.018 -230 50 -230 c 13
EndSplineSet
Validated: 524289
EndChar

StartChar: numbersign
Encoding: 35 35 85
Width: 480
VWidth: 0
Flags: W
HStem: 0 21G<90 148.333 240 298.333> 120 50<20 110 181.667 260 331.667 430> 250 50<50 143.333 215 293.333 365 460> 400 20G<176.667 235 326.667 385>
LayerCount: 2
Fore
SplineSet
348.333 250 m 1
 331.667 170 l 1
 430 170 l 1
 430 120 l 1
 315 120 l 1
 295 0 l 1
 240 0 l 1
 260 120 l 1
 165 120 l 1
 145 0 l 1
 90 0 l 1
 110 120 l 1
 20 120 l 1
 20 170 l 1
 126.667 170 l 1
 143.333 250 l 1
 50 250 l 1
 50 300 l 1
 160 300 l 1
 180 420 l 1
 235 420 l 1
 215 300 l 1
 310 300 l 1
 330 420 l 1
 385 420 l 1
 365 300 l 1
 460 300 l 1
 460 250 l 1
 348.333 250 l 1
293.333 250 m 1
 198.333 250 l 1
 181.667 170 l 1
 276.667 170 l 1
 293.333 250 l 1
EndSplineSet
Validated: 1
EndChar

StartChar: two
Encoding: 50 50 86
Width: 440
VWidth: 0
Flags: W
HStem: 0 25<124.532 364.924> 635 25<145.518 263.006>
VStem: 50 0<510 555> 330 70<431.785 585.131> 365 25<25.0763 85>
LayerCount: 2
Fore
SplineSet
50 565 m 1xf0
 65 619.5 127.995 660 220 660 c 3
 344 660 400 602.501 400 510 c 3xf0
 400 388.499 125 45 125 45 c 2
 114.785 27.8018 120 25 140 25 c 2
 345 25 l 2
 365 25 365 25 365 45 c 2
 365 75 l 2
 365 85 365 85 375 85 c 2
 390 85 l 1
 390 0 l 1xe8
 50 0 l 1
 50 25 l 2
 50 34.667 50.9932 39.8135 55 45 c 1
 142.305 163.353 330 409.499 330 510 c 3
 330 527.507 326.016 635 200 635 c 3
 113.948 635 59 555 50 510 c 1
 50 565 l 1xf0
EndSplineSet
Validated: 524289
EndChar

StartChar: exclam
Encoding: 33 33 87
Width: 220
VWidth: 0
Flags: W
HStem: -5 80<74.5238 144.136> 640 20G<96.1245 122.881>
VStem: 70 80<0.193275 70.3151 353.316 653.575> 100 20<160 340.987>
LayerCount: 2
Fore
SplineSet
120 160 m 1xd0
 100 160 l 1xd0
 100 422.5 70 423.496 70 540 c 7
 70 633.135 82.249 660 110 660 c 7
 135.761 660 150 634.021 150 540 c 7xe0
 150 421.483 120 421.5 120 160 c 1xd0
EndSplineSet
Refer: 39 46 N 1 0 0 1 10 0 2
Validated: 524289
EndChar

StartChar: at
Encoding: 64 64 88
Width: 680
VWidth: 0
Flags: W
HStem: -170 25<365.545 550> -20 35<470.493 531.538> -10 25<297.626 349.356> 265 25<354.073 400> 405 25<294.315 454.705>
VStem: 30 70<9.60638 242.929> 210 70<24.5591 199.564> 400 70<15.0073 265> 580 70<94.0397 292.647>
LayerCount: 2
Fore
SplineSet
489 -20 m 3xdf80
 429.964 -20 400 0 400 0 c 1
 400 60 l 1
 387 38 368.5 -10 310 -10 c 3xbf80
 224.5 -10 210 52.9922 210 120 c 3
 210 208 271.5 290 470 290 c 1
 470 45 l 2
 470 25 470 15 490 15 c 3
 543.5 15 580 79.9082 580 190 c 3
 580 317.009 498.005 405 390 405 c 3
 161.5 405 100 245 100 140 c 3
 100 -22 147.5 -145 550 -145 c 0
 550 -170 l 3
 99.5001 -170 30 -51 30 140 c 3
 30 249 109.199 430 390 430 c 3
 570 430 650 334.195 650 190 c 3
 650 94.999 581.5 -20 489 -20 c 3xdf80
400 265 m 1
 314.5 265 280 186 280 120 c 3
 280 72.9971 284.5 15 320 15 c 3
 353.241 15 400 73 400 120 c 2
 400 265 l 1
EndSplineSet
Validated: 524289
EndChar

StartChar: dollar
Encoding: 36 36 89
Width: 495
VWidth: 0
Flags: W
HStem: -9.88086 25.1231<184.628 225 265 302.366> 294.762 70.17<166.183 225> 634.34 24.983<176.571 225> 710 20G<225 265>
VStem: 35 60<428.558 566.574> 225 40<-130 -9.88086 19.3135 268.783 364.932 624.977 657.041 730> 405 60<87.2987 192.815> 415 25<595.661 640>
LayerCount: 2
Fore
SplineSet
225 -9.88086 m 1xfe
 180.814 -7.89844 68.2567 19.2542 25 100 c 1
 85 140 l 1
 85 72.6919 181.155 19.252 225 15.2422 c 1
 225 294.762 l 1
 155.062 317.143 35 360.812 35 490 c 7
 35 602.833 152.393 653.058 225 659.323 c 1
 225 730 l 1
 265 730 l 1
 265 651.892 l 1
 314.656 637.999 386.902 609.724 395 595 c 1
 410 595 415 600 415 615 c 2
 415 640 l 1
 440 640 l 1
 440 500 l 1xfd
 432.83 535.852 336.631 600.269 265 624.977 c 1
 265 341.123 l 1
 338.932 312.635 465 259.655 465 160 c 7
 465 51.9457 350.416 8.28125 265 -5.10254 c 1
 265 -130 l 1
 225 -130 l 1
 225 -9.88086 l 1xfe
225 634.34 m 1
 164.717 629.088 95 592.126 95 510 c 7
 95 401.485 166.46 383.46 225 364.932 c 1
 225 634.34 l 1
265 19.3135 m 1
 324.137 28.7891 405 57.6009 405 140 c 7xfe
 405 206.637 318.704 244.851 265 268.783 c 1
 265 19.3135 l 1
EndSplineSet
Validated: 524289
EndChar

StartChar: grave
Encoding: 96 96 90
Width: 285
VWidth: 0
Flags: W
HStem: 485 175
VStem: 30 225
LayerCount: 2
Fore
SplineSet
30 610 m 1
 80 660 l 1
 255 510 l 1
 245 485 l 1
 30 610 l 1
EndSplineSet
Validated: 1
EndChar

StartChar: asterisk
Encoding: 42 42 91
Width: 430
Flags: W
HStem: 80 290
VStem: 190 50<235 370>
LayerCount: 2
Fore
SplineSet
310 80 m 1
 215 170 l 1
 120 80 l 1
 90 110 l 1
 170 195 l 1
 70 245 l 1
 90 285 l 1
 190 235 l 1
 190 370 l 1
 240 370 l 1
 240 235 l 1
 340 285 l 1
 360 245 l 1
 260 195 l 1
 340 110 l 1
 310 80 l 1
EndSplineSet
Validated: 1
EndChar

StartChar: asciicircum
Encoding: 94 94 92
Width: 370
VWidth: 0
Flags: W
HStem: 505 155
VStem: 30 310
LayerCount: 2
Fore
SplineSet
185 660 m 1
 340 530 l 1
 330 505 l 1
 185 580.931 l 1
 40 505 l 5
 30 530 l 5
 185 660 l 1
EndSplineSet
Validated: 1
EndChar

StartChar: acute
Encoding: 180 180 93
Width: 285
VWidth: 0
Flags: W
HStem: 485 175
VStem: 30 225
LayerCount: 2
Fore
SplineSet
255 610 m 5
 40 485 l 5
 30 510 l 5
 205 660 l 5
 255 610 l 5
EndSplineSet
Validated: 1
EndChar

StartChar: exclamdown
Encoding: 161 161 95
Width: 180
VWidth: 0
Flags: W
HStem: -235 21G<96.1245 122.881> 350 80<74.5238 144.136>
VStem: 70 80<-219.866 168.693 354.685 424.807> 100 20<156.729 265>
LayerCount: 2
Fore
SplineSet
120 265 m 1xd0
 120 225 150 -12.9619 150 -65 c 3
 150 -159.021 135.761 -235 110 -235 c 3
 82.249 -235 70 -158.135 70 -65 c 3xe0
 70 -15 100 225 100 265 c 1
 120 265 l 1xd0
110 430 m 3
 136.326 430 150 402.253 150 390 c 3
 150 374.998 135.761 350 110 350 c 3
 82.249 350 70 372.25 70 390 c 3
 70 404.77 80.7461 430 110 430 c 3
EndSplineSet
Validated: 1
EndChar

StartChar: three
Encoding: 51 51 96
Width: 440
VWidth: 0
Flags: W
HStem: -10 25<123.603 228.527> 625 25<75.0763 325.003>
VStem: 50 25<565 624.924> 330 70<111.116 286.374>
LayerCount: 2
Fore
SplineSet
160 370 m 1
 325 605 l 2
 336.495 621.372 330 625 310 625 c 2
 95 625 l 2
 75 625 75 625 75 605 c 2
 75 575 l 2
 75 565 75 565 65 565 c 2
 50 565 l 1
 50 650 l 1
 390 650 l 1
 390 625 l 2
 390 615.333 388.766 610.363 385 605 c 2
 244 405 l 1
 332 387 400 322.123 400 210 c 3
 400 54.9023 294 -10 180 -10 c 3
 132.997 -10 50 9 50 41 c 9
 50 100 l 17
 50 53 133 15 180 15 c 3
 250 15 330 90.9902 330 210 c 3
 330 293.568 257.25 370 160 370 c 1
EndSplineSet
Validated: 1
EndChar

StartChar: question
Encoding: 63 63 97
Width: 400
VWidth: 0
Flags: W
HStem: -5 80<154.524 224.136> 635 25<115.862 232.439>
VStem: 30 0<510 555> 150 80<0.193275 70.3151> 177 25<160 297.243> 300 70<437.439 586.172>
LayerCount: 2
Fore
SplineSet
177 160 m 1xec
 177 300 l 1
 248 349 300 448.962 300 510 c 3
 300 527.507 299.016 635 170 635 c 3
 83.9482 635 39 555 30 510 c 1
 30 565 l 1
 45 619.5 105.927 660 190 660 c 3
 306.01 660 370 608.505 370 510 c 3
 370 422.5 268 340 202 290 c 1
 202 160 l 1
 177 160 l 1xec
EndSplineSet
Refer: 39 46 N 1 0 0 1 90 0 2
Validated: 1
EndChar

StartChar: five
Encoding: 53 53 98
Width: 440
VWidth: 0
Flags: W
HStem: -10 25<123.603 236.554> 405 25<148.548 252.747> 625 25<120 354.924>
VStem: 50 70<390 625> 330 70<105.834 317.096> 355 25<565 624.924>
LayerCount: 2
Fore
SplineSet
50 305 m 1xf8
 50 650 l 1
 380 650 l 1
 380 565 l 1
 365 565 l 2
 355 565 355 565 355 575 c 2
 355 605 l 2xf4
 355 625 355 625 335 625 c 2
 120 625 l 2
 120 390 l 1
 125.5 404.5 150 430 205 430 c 3
 299 430 400 367.001 400 200 c 3
 400 65.9854 288.019 -10 180 -10 c 3
 132.997 -10 50 11 50 41 c 9
 50 100 l 17
 50 53 133 15 180 15 c 3
 278.005 15 330 101.816 330 200 c 3
 330 347.004 270 405 205 405 c 3
 137.813 405 85.5 355 50 305 c 1xf8
EndSplineSet
Validated: 524289
EndChar

StartChar: eight
Encoding: 56 56 99
Width: 440
VWidth: 0
Flags: W
HStem: -10 25<170.452 270.694> 350 35<171.006 268.994> 635 25<176.143 264.957>
VStem: 40 70<82.5593 285.534> 60 70<431.111 585.778> 310 70<424.694 587.306> 330 70<80.8213 285.367>
LayerCount: 2
Fore
SplineSet
220 385 m 3xec
 289.419 385 310 447.913 310 500 c 3
 310 570.007 293 635 220 635 c 3
 150 635 130 564.008 130 500 c 3
 130 451.989 150.581 385 220 385 c 3xec
220 350 m 3
 150.581 350 110 264.794 110 200 c 3
 110 64.9404 150 15 220 15 c 3
 293 15 330 70.9385 330 200 c 3xf2
 330 264.794 289.419 350 220 350 c 3
285 355 m 1
 350 349 400 293.981 400 200 c 3
 400 59.9961 337 -10 220 -10 c 3
 106 -10 40 55.9688 40 200 c 3xf2
 40 293.912 80 335 155 375 c 1
 80 407 60 456.587 60 500 c 3
 60 578.16 106 660 220 660 c 3
 337 660 380 578.007 380 500 c 3xec
 380 458.01 358 395 285 355 c 1
EndSplineSet
Validated: 1
EndChar

StartChar: four
Encoding: 52 52 102
Width: 440
VWidth: 0
Flags: W
HStem: 0 25<190 254.939 325.076 390> 172 25<94.9987 255 325 400> 630 20G<245.762 325>
VStem: 255 70<25.0001 172 197 568.45>
LayerCount: 2
Fore
SplineSet
255 568.45 m 1
 95 217 l 2
 90.5381 207.198 92 197 110 197 c 2
 255 197 l 1
 255 568.45 l 1
255 172 m 1
 50 172 l 1
 50 197 l 2
 50 205.5 51.043 208.432 55 217 c 2
 255 650 l 1
 325 650 l 1
 325 197 l 1
 400 197 l 1
 400 172 l 1
 325 172 l 1
 325 45 l 2
 325 25 325 25 345 25 c 2
 380 25 l 2
 390 25 390 25 390 15 c 2
 390 0 l 1
 190 0 l 1
 190 15 l 2
 190 25 190 25 200 25 c 2
 235 25 l 2
 255.252 25 255 25 255 45 c 2
 255 172 l 1
EndSplineSet
Validated: 1
EndChar

StartChar: six
Encoding: 54 54 103
Width: 440
VWidth: 0
Flags: W
HStem: -10 25<181.549 268.809> 330 25<196.303 282.217> 635 25<316.346 390>
VStem: 40 70<141.788 401.585> 330 70<84.2942 275.939>
LayerCount: 2
Fore
SplineSet
145 300 m 17
 172.985 339.767 206 355 240 355 c 3
 346.169 355 400 279.016 400 180 c 3
 400 64.9785 320.05 -10 230 -10 c 3
 121.995 -10 40 111 40 280 c 3
 40 491.009 213.997 660 390 660 c 0
 390 635 l 3
 219.988 635 110 473.041 110 280 c 3
 110 138.893 129.501 15 230 15 c 3
 314 15 330 142.996 330 180 c 3
 330 258.768 308.007 330 240 330 c 3
 213 330 178.153 313.623 145 275 c 9
 145 300 l 17
EndSplineSet
Validated: 1
EndChar

StartChar: percent
Encoding: 37 37 104
Width: 580
VWidth: 0
Flags: W
HStem: -10 25<424.529 498.095> 0 21G<55 127.308> 205 25<423.383 496.053> 420 25<124.529 203.614> 560 25<288.004 383.997> 630 20G<443.5 515> 635 25<123.383 201.44>
VStem: 10 70<478.302 601.647> 245 25<488.661 574.776> 310 70<48.3024 171.647> 540 30<56.4165 160.996>
LayerCount: 2
Fore
SplineSet
455 650 m 1x3de0
 515 650 l 1x3de0
 115 0 l 1
 55 0 l 1
 410 576 l 1
 381 566 354 560 330 560 c 7
 307 560 279 567 265 576 c 1
 269 561 270 548 270 540 c 7
 270 510 250 420 160 420 c 7
 46 420 10 496 10 540 c 7
 10 578 44 660 160 660 c 7x7be0
 187 660 208 652 224 641 c 0
 258 618 291 585 330 585 c 7
 375.011 585 432 617 455 650 c 1x3de0
160 635 m 7x3be0
 116 635 80 590 80 540 c 7
 80 490 120 445 160 445 c 7
 206 445 245 477.992 245 540 c 7
 245 586.011 212 635 160 635 c 7x3be0
460 -10 m 7xb9e0
 346 -10 310 66 310 110 c 7
 310 148 344 230 460 230 c 7
 556 230 570 140 570 110 c 7
 570 80 550 -10 460 -10 c 7xb9e0
460 205 m 7
 416 205 380 160 380 110 c 7
 380 60 420 15 460 15 c 7
 506 15 540 61 540 110 c 7
 540 144 512 205 460 205 c 7
EndSplineSet
Validated: 524289
EndChar

StartChar: braceleft
Encoding: 123 123 105
Width: 360
VWidth: 0
Flags: W
HStem: -230 25<280.864 330> 705 25<280.657 330>
VStem: 30 300
LayerCount: 2
Fore
SplineSet
330 -230 m 3
 122.99 -230 200 86 30 230 c 1
 212 394 126.773 730 330 730 c 0
 330 705 l 3
 150.662 705 256 362 100 230 c 1
 244 126 152.93 -205 330 -205 c 0
 330 -230 l 3
EndSplineSet
Validated: 1
EndChar

StartChar: braceright
Encoding: 125 125 106
Width: 320
VWidth: 0
Flags: W
HStem: -230 25<-10 39.1363> 705 25<-10 39.3431>
VStem: -10 300
LayerCount: 2
Fore
SplineSet
-10 -230 m 3
 -10 -205 l 0
 167.07 -205 76 126 220 230 c 1
 64 362 169.338 705 -10 705 c 3
 -10 730 l 0
 193.227 730 108 394 290 230 c 1
 120 86 197.01 -230 -10 -230 c 3
EndSplineSet
Validated: 1
EndChar

StartChar: asciitilde
Encoding: 126 126 107
Width: 440
VWidth: 0
Flags: W
HStem: 152 25<272.049 330.763> 245 25<111.588 169.881>
VStem: 70 300
LayerCount: 2
Fore
SplineSet
195 201 m 0
 168 246 149.105 245 130 245 c 3
 110.765 245 70 210 70 150 c 9
 70 213 l 1
 74 232 108.961 270 160 270 c 3
 191.016 270 219 264 245 221 c 0
 265.384 187.288 285 177 310 177 c 7
 341.016 177 370 212 370 272 c 9
 370 209 l 1
 366 190 336.223 152 280 152 c 7
 253.317 152 217.338 163.771 195 201 c 0
EndSplineSet
EndChar

StartChar: brokenbar
Encoding: 166 166 109
Width: 220
VWidth: 0
Flags: W
HStem: -230 21G<85 135> 710 20G<85 135>
VStem: 85 50<-230 170 320 730>
LayerCount: 2
Fore
SplineSet
135 170 m 1
 135 -230 l 1
 85 -230 l 1
 85 170 l 1
 135 170 l 1
85 320 m 1
 85 730 l 1
 135 730 l 17
 135 320 l 1
 85 320 l 1
EndSplineSet
Validated: 1
EndChar

StartChar: degree
Encoding: 176 176 111
Width: 380
VWidth: 0
Flags: W
HStem: 420 25<151.424 231.249> 635 25<150.775 228.967>
VStem: 70 30<493.24 587.666> 280 30<491.825 584.306>
LayerCount: 2
Fore
SplineSet
190 420 m 3
 116 420 70 496 70 540 c 3
 70 578 99.4873 660 190 660 c 3
 286 660 310 570 310 540 c 7
 310 510 280 420 190 420 c 3
190 635 m 3
 146 635 100 590 100 540 c 3
 100 490 150 445 190 445 c 3
 236 445 280 491 280 540 c 7
 280 574 242 635 190 635 c 3
EndSplineSet
EndChar

StartChar: paragraph
Encoding: 182 182 113
Width: 550
VWidth: 0
Flags: W
HStem: 0 25<260 299.924 370.076 414.939 485.076 530> 625 35<370 413.963>
VStem: 20 350<318.797 541.115> 300 70<25.0001 260> 415 70<25.0001 625>
LayerCount: 2
Fore
SplineSet
485 650 m 25xd8
 485 45 l 18
 485 25 485 25 505 25 c 2
 520 25 l 2
 530 25 530 25 530 15 c 10
 530 0 l 25
 260 0 l 1
 260 15 l 2
 260 25 260 25 270 25 c 2
 280 25 l 2
 300 25 300 25 300 45 c 2
 300 260 l 1xd8
 279 243 240 220 200 220 c 3
 90 220 20 299 20 430 c 3xe8
 20 622 158.683 660 300 660 c 7
 424 660 412.85 653.9 485 650 c 25xd8
370 625 m 1
 370 45 l 2
 370 25 370 25 390 25 c 2
 395 25 l 2
 415.252 25 415 25 415 45 c 10
 415 605 l 18
 415 625 415 625 395 625 c 2
 370 625 l 1
EndSplineSet
Validated: 524289
EndChar

StartChar: sterling
Encoding: 163 163 114
Width: 495
VWidth: 0
Flags: W
HStem: 0 25<10.0082 74.9393 145.076 444.924> 285 25<30 75 145 335> 630 20G<445 470> 635 25<243.012 362.111>
VStem: 75 70<25.0001 285 310 466.674> 445 25<25.0763 85 605.661 650>
LayerCount: 2
Fore
SplineSet
30 285 m 1xdc
 30 310 l 1
 75 310 l 1
 75 535.056 180.803 660 305 660 c 0xdc
 355.09 660 413.5 625 425 605 c 1
 440 605 445 610 445 625 c 2
 445 650 l 1
 470 650 l 1xec
 470 510 l 1
 461 555 391.052 635 305 635 c 0
 188.996 635 145 561.005 145 310 c 1
 335 310 l 1
 335 285 l 1
 145 285 l 1
 145 45 l 2
 145 25 145 25 165 25 c 2
 425 25 l 2
 445 25 445 25 445 45 c 2
 445 75 l 2
 445 85 445 85 455 85 c 2
 470 85 l 1
 470 0 l 1
 10 0 l 1
 10 10 l 2
 10 19.998 10 25 20 25 c 2
 55 25 l 2
 75.252 25 75 25 75 45 c 2
 75 285 l 1
 30 285 l 1xdc
EndSplineSet
Validated: 1
EndChar

StartChar: cent
Encoding: 162 162 115
Width: 445
VWidth: 0
Flags: W
HStem: -8.23407 27.8474<186.396 215 265 318.588> 401.722 26.778<180.799 215 265 311.115>
VStem: 30 70<104.647 325.275> 215 50<-130 -6.81955 19.6133 401.722 426.451 560>
LayerCount: 2
Fore
SplineSet
215 401.722 m 1
 139.996 386.764 100 320.903 100 210 c 0
 100 102.151 151.189 36.8617 215 19.6133 c 1
 215 401.722 l 1
215 -8.23407 m 1
 87.5177 5.13404 30 93.0678 30 210 c 0
 30 339.799 86.7319 417.003 215 428.5 c 1
 215 560 l 1
 265 560 l 1
 265 429.084 l 1
 308.276 424.226 377.921 399.831 405 351 c 1
 375 281 l 1
 368.486 339.628 330.075 396.524 265 404.138 c 1
 265 16.065 l 1
 305.516 21.5222 359.792 47.8605 389 93 c 1
 405 70 l 1
 354.778 8.32328 303.779 -6.77364 265 -9.4918 c 1
 265 -130 l 1
 215 -130 l 1
 215 -8.23407 l 1
EndSplineSet
Validated: 1
EndChar

StartChar: ampersand
Encoding: 38 38 116
Width: 490
VWidth: 0
Flags: W
HStem: -10 25<165.933 315.682 462.655 485> 635 25<204.923 305.216>
VStem: 5 70<83.5339 233.133> 75 70<395.16 578.837>
LayerCount: 2
Fore
SplineSet
355 530 m 3xd0
 355 559.411 339 635 255 635 c 7
 180.993 635 145 575 145 492 c 7xd0
 145 354 306 172 402 78 c 1
 436 103 466 134 485 167 c 1
 485 142 l 1
 471 109 448 81 422 59 c 1
 451 33 475 17 485 17 c 1
 485 -8 l 1
 463 -8 430 9 392 36 c 1
 343 4 308.007 -10 239 -10 c 7
 130.995 -10 5 37.9824 5 152 c 7xe0
 5 234.024 82 323 118 343 c 1
 85 385 75 445 75 492 c 7
 75 591 142.995 660 255 660 c 7
 345 660 388 622 425 560 c 0
 355 530 l 3xd0
367 55 m 1
 292 115 205 213 140 312 c 1
 114 292 75 230.034 75 172 c 7xe0
 75 40.9043 172.879 15 239 15 c 7
 305.008 15 324 30 367 55 c 1
EndSplineSet
Validated: 1
EndChar

StartChar: ae
Encoding: 230 230 245
Width: 755
VWidth: 0
Flags: W
HStem: -10 25<136.487 227.767 478.643 611.831> 220 25<253.099 310 392.67 654.092> 405 25<178.807 285.079 471.803 580.514>
VStem: 40 70<35.7282 148.24> 310 80<96.6919 219.39 245.987 326.864> 654.092 60.908<245 325.104>
LayerCount: 2
Fore
SplineSet
310 225 m 1
 193 189 110 174.002 110 100 c 7
 110 52.9971 118.972 15 190 15 c 3
 223.241 15 310 73 310 120 c 2
 310 225 l 1
654.092 245 m 1
 650.5 358 592.508 405 530 405 c 3
 445.494 405 400.5 346 392.67 245 c 1
 654.092 245 l 1
715 220 m 1
 391.988 220 l 1
 390.621 206.755 390 208.286 390 195 c 3
 390 75.9834 460.5 15 530 15 c 3
 570.852 15 656.5 27 689 78 c 1
 705 60 l 1
 648 -10 569.747 -10 530 -10 c 3
 464.106 -10 401 21 362 74 c 1
 322 11 250.592 -10 190 -10 c 3
 92.9176 -10 40 32.9925 40 100 c 3
 40 183.006 209 222 310 250 c 1
 310 320 l 2
 310 356 305.5 405 240 405 c 3
 147.994 405 103.5 337 80 270 c 1
 60 340 l 1
 87 391 161 430 230 430 c 3
 326.032 430 363 405 375 373 c 1
 409 409 459.998 430 530 430 c 3
 599.507 430 714.5 380 715 220 c 1
EndSplineSet
Validated: 1
EndChar

StartChar: oe
Encoding: 339 339 246
Width: 835
VWidth: 0
Flags: W
HStem: -10 25<207.267 301.71 557.992 691.831> 220 25<472.67 734.092> 405 25<196.3 297.978 551.285 660.514>
VStem: 40 70<115.16 315.433> 390 80<101.249 220 245 312.609> 734.092 60.908<245 325.104>
LayerCount: 2
Fore
SplineSet
250 -10 m 0
 140.498 -10 40 66.9961 40 210 c 0
 40 351.032 131.488 430 250 430 c 0
 325.945 430 392 400 429 338 c 1
 461 395 519.55 430 610 430 c 0
 679.507 430 794.5 380 795 220 c 1
 471.988 220 l 1
 470.621 206.755 470 208.286 470 195 c 0
 470 75.9834 540.5 15 610 15 c 0
 650.852 15 736.5 27 769 78 c 1
 785 60 l 1
 728 -10 649.747 -10 610 -10 c 0
 538.057 -10 470 26 432 89 c 1
 395 22 326.638 -10 250 -10 c 0
250 405 m 0
 173.679 405 110 340 110 210 c 0
 110 107 180.5 15 250 15 c 0
 319.5 15 390 76 390 210 c 0
 390 321.288 326.321 405 250 405 c 0
734.092 245 m 1
 730.5 358 672.508 405 610 405 c 0
 525.494 405 480.5 346 472.67 245 c 1
 734.092 245 l 1
EndSplineSet
Validated: 1
EndChar

StartChar: kgreenlandic
Encoding: 312 312 247
Width: 500
VWidth: 0
Flags: W
HStem: 0 25<10 74.9393 145.076 210 270 335.003 416.373 495> 395 25<10 74.9393 145.076 210 264 336.003 375.969 455>
VStem: 75 70<25.0001 140 170 395>
LayerCount: 2
Fore
SplineSet
75 375 m 6
 75 395 75.252 395 55 395 c 6
 20 395 l 6
 10 395 10 395 10 405 c 6
 10 420 l 5
 210 420 l 5
 210 405 l 6
 210 395 210 395 200 395 c 6
 165 395 l 6
 145 395 145 395 145 375 c 6
 145 170 l 1
 336 375 l 2
 345 385 336 395 323 395 c 2
 274 395 l 2
 264 395 264 395 264 405 c 2
 264 420 l 1
 455 420 l 1
 455 405 l 2
 455 395 455 395 445 395 c 2
 405 395 l 2
 390 395 376.972 385.022 368 375 c 2
 257 251 l 1
 410 45 l 2
 421.836 29.0635 430 25 450 25 c 2
 485 25 l 2
 495 25 495 25 495 15 c 2
 495 0 l 1
 270 0 l 1
 270 15 l 2
 270 25 270 25 280 25 c 2
 315 25 l 2
 335 25 346.474 28.8027 335 45 c 2
 216 213 l 1
 145 140 l 1
 145 45 l 2
 145 25 145 25 165 25 c 2
 200 25 l 2
 210 25 210 25 210 15 c 2
 210 0 l 1
 10 0 l 1
 10 15 l 2
 10 25 10 25 20 25 c 2
 55 25 l 2
 75.252 25 75 25 75 45 c 2
 75 375 l 6
EndSplineSet
Validated: 1
EndChar

StartChar: longs
Encoding: 383 383 248
Width: 340
VWidth: 0
Flags: W
HStem: 0 25<60 104.939 175.076 220> 390 25<20 105> 715 25<219.498 329.037>
VStem: 105 70<25.0001 390 415 665.8>
LayerCount: 2
Fore
SplineSet
175 45 m 2
 175 25 175 25 195 25 c 2
 210 25 l 2
 220 25 220 25 220 15 c 2
 220 0 l 1
 60 0 l 1
 60 15 l 2
 60 25 60 25 70 25 c 2
 85 25 l 2
 105.25 25.25 105 25 105 45 c 2
 105 390 l 1
 20 390 l 1
 20 415 l 1
 105 415 l 1
 105 570 l 2
 105 724.013 215.994 740 295 740 c 3
 323 740 420 731 450 650 c 1
 380 630 l 1
 368 703 304 715 280 715 c 3
 221.69 715 175 689 175 630 c 2
 175 45 l 2
EndSplineSet
Validated: 1
EndChar

StartChar: Eth
Encoding: 208 208 251
Width: 560
VWidth: 0
Flags: W
HStem: 0 25<60 124.939 195.076 331.912> 305 25<60 320> 625 25<60 124.924 195.928 320.855>
VStem: 125 70<25.0001 624.993> 475 70<178.94 457.703>
LayerCount: 2
Fore
SplineSet
60 330 m 5
 320 330 l 5
 320 305 l 5
 60 305 l 5
 60 330 l 5
EndSplineSet
Refer: 11 68 N 1 0 0 1 50 0 2
Validated: 5
EndChar

StartChar: breve
Encoding: 728 728 264
Width: 380
VWidth: 0
Flags: W
HStem: 540 25<154.461 228.095> 640 20G<80 110 270 300>
VStem: 80 30<607.969 660> 270 30<606.514 660>
LayerCount: 2
Fore
SplineSet
110 660 m 3
 110 610 150 565 190 565 c 3
 236 565 270 611 270 660 c 0
 300 660 l 3
 300 630 280 540 190 540 c 3
 116 540 80 616 80 660 c 0
 110 660 l 3
EndSplineSet
Validated: 1
EndChar

StartChar: eng
Encoding: 331 331 277
Width: 495
VWidth: 0
Flags: W
HStem: -240 30<236.982 292.928> 0 25<10 74.9237 145.076 210> 370 25<35 65.8> 400 20G<57 145> 405 25<209.645 299.641>
VStem: 75 70<25.0001 360.19> 355 70<-138.242 367.936>
LayerCount: 2
Fore
SplineSet
355 310 m 6xee
 355 382 279 405 255 405 c 7xee
 221 405 145 369 145 310 c 6
 145 45 l 6
 145 25 145 25 165 25 c 6
 200 25 l 6
 210 25 210 25 210 15 c 6
 210 0 l 5
 10 0 l 5
 10 15 l 6
 10 25 10 25 20 25 c 6
 55 25 l 6
 75 25 75 25 75 45 c 6
 75 350 l 6
 75 370 75 370 55 370 c 6
 45 370 l 6
 35 370 35 370 35 380 c 6
 35 395 l 5
 145 420 l 5xf6
 145 373 l 5
 149 395 213 430 255 430 c 7
 283 430 425 418.005 425 310 c 6
 425 -50 l 22
 425 -114 391 -240 190 -240 c 4
 210 -150 l 5
 216 -165 234.934 -210 265 -210 c 7
 339.169 -210 355 -156 355 -30 c 14
 355 310 l 6xee
EndSplineSet
Validated: 1
EndChar

StartChar: Eng
Encoding: 330 330 278
Width: 495
VWidth: 0
Flags: W
HStem: -240 30<236.982 292.928> 0 25<10 74.9237 145.076 210> 600 25<35 65.8> 630 20G<57 145> 635 25<209.645 299.641>
VStem: 75 70<25.0001 590.19> 355 70<-138.242 597.936>
LayerCount: 2
Fore
SplineSet
355 540 m 6xee
 355 612 279 635 255 635 c 7xee
 221 635 145 599 145 540 c 6
 145 45 l 2
 145 25 145 25 165 25 c 2
 200 25 l 2
 210 25 210 25 210 15 c 2
 210 0 l 1
 10 0 l 1
 10 15 l 2
 10 25 10 25 20 25 c 2
 55 25 l 2
 75 25 75 25 75 45 c 2
 75 580 l 6
 75 600 75 600 55 600 c 6
 45 600 l 6
 35 600 35 600 35 610 c 6
 35 625 l 5
 145 650 l 5xf6
 145 603 l 5
 149 625 213 660 255 660 c 7
 283 660 425 648.005 425 540 c 6
 425 -50 l 18
 425 -114 391 -240 190 -240 c 0
 210 -150 l 1
 216 -165 234.934 -210 265 -210 c 3
 339.169 -210 355 -156 355 -30 c 10
 355 540 l 6xee
EndSplineSet
Validated: 1
EndChar

StartChar: Hbar
Encoding: 294 294 279
Width: 591
VWidth: 0
Flags: W
HStem: 0 25<10 74.9393 145.076 205 380 444.939 515.076 575> 330 25<145 445> 495 25<20 580> 625 25<15 74.9237 145.076 211 385 444.924 515.076 581>
VStem: 75 70<25.0001 330 355 625> 445 70<25.0001 330 355 625>
LayerCount: 2
Fore
SplineSet
20 520 m 1
 580 520 l 1
 580 495 l 1
 20 495 l 1
 20 520 l 1
EndSplineSet
Refer: 2 72 N 1 0 0 1 0 0 2
Validated: 5
EndChar

StartChar: hbar
Encoding: 295 295 280
Width: 560
VWidth: 0
Flags: W
HStem: 0 25<10 74.9237 145.076 210 310 374.924 445.076 510> 405 25<220.706 323.62> 565 25<10 270> 680 25<35 65.8> 710 20<57 145>
VStem: 75 70<25.0001 354.337 373 680> 375 70<25.0001 371.201>
LayerCount: 2
Fore
SplineSet
10 590 m 5
 270 590 l 5
 270 565 l 5
 10 565 l 5
 10 590 l 5
EndSplineSet
Refer: 41 104 N 1 0 0 1 0 0 2
Validated: 5
EndChar

StartChar: OE
Encoding: 338 338 303
Width: 760
VWidth: 0
Flags: W
HStem: 0 25<281.064 389.939 460.076 719.924> 330 25<460 639.924> 400 20G<645 665> 625 25<260.552 389.924 460.076 709.924>
VStem: 35 70<199.736 447.66> 390 70<25 330 355 625> 640 25<270 329.921 355.06 420> 710 25<565 624.924> 720 25<25.0763 85>
LayerCount: 2
Fore
SplineSet
345 0 m 2xfe80
 232.982 0 35 92 35 310 c 3
 35 533.002 174.974 650 345 650 c 2
 735 650 l 1
 735 565 l 1xff
 720 565 l 2xfe80
 710 565 710 565 710 575 c 2
 710 605 l 2xff
 710 625 710 625 690 625 c 2
 480 625 l 2
 460 625 460 625 460 605 c 2
 460 355 l 1
 620 354.999 l 2
 640 354.999 640 354.748 640 375 c 2
 640 410 l 2
 640 420 640 420 650 420 c 2
 665 420 l 1
 665 270 l 1
 650 270 l 2
 640 270 640 270 640 280 c 2
 640 310 l 2
 640 330 640.001 329.997 620.001 329.997 c 2
 460 330 l 1
 460 45 l 2
 460 25 460 25 480 25 c 2
 700 25 l 2
 720 25 720 25 720 45 c 2
 720 75 l 2
 720 85 720 85 730 85 c 2
 745 85 l 1
 745 0 l 1
 345 0 l 2xfe80
370 25 m 2
 390.25 25.25 390 25 390 45 c 2
 390 605 l 2
 390 625 390 625 370 625 c 2
 345 625 l 2
 186.921 625 105 534.02 105 310 c 3
 105 81.9978 268.993 25 345 25 c 2
 370 25 l 2
EndSplineSet
Validated: 1
EndChar

StartChar: uni0328
Encoding: 808 808 304
Width: 160
VWidth: 0
Flags: W
HStem: -175 180
VStem: 30 60<-108.167 -17.3177>
LayerCount: 2
Fore
SplineSet
130 -150 m 5
 130 -175 l 5
 70.667 -144.5 30 -97.501 30 -35 c 7
 30 -19.998 44.2393 5 70 5 c 7
 94.667 5 120 -16 120 -35 c 5
 107 -35 90 -51 90 -70 c 7
 90 -87 92.7725 -124.743 130 -150 c 5
EndSplineSet
Validated: 1
EndChar

StartChar: Tbar
Encoding: 358 358 313
Width: 540
VWidth: 0
Flags: W
HStem: 0 25<170 234.939 305.076 365> 305 25<135 405> 560 90<25 50 490 515> 620 30<50.0165 234.984 305.016 489.984>
VStem: 25 25<560 619.924> 235 70<25.0001 620> 490 25<560 619.924>
CounterMasks: 1 0e
LayerCount: 2
Fore
SplineSet
135 330 m 1xce
 405 330 l 1
 405 305 l 1
 135 305 l 1
 135 330 l 1xce
EndSplineSet
Refer: 5 84 N 1 0 0 1 0 0 2
Validated: 5
EndChar

StartChar: tbar
Encoding: 359 359 314
Width: 385
VWidth: 0
Flags: W
HStem: -10 25<183.828 281.784> 265 25<30 270> 395 25<30 67.2353 140 335>
VStem: 70 70<50.3134 395> 115 25<472.991 520>
LayerCount: 2
Fore
SplineSet
30 290 m 5xe0
 270 290 l 5
 270 265 l 5
 30 265 l 5
 30 290 l 5xe0
EndSplineSet
Refer: 46 116 N 1 0 0 1 0 0 2
Validated: 5
EndChar

StartChar: dcroat
Encoding: 273 273 315
Width: 500
VWidth: 0
Flags: W
HStem: -10 25<186.173 295.829> 0 25<425.076 490> 405 25<188.798 296.484> 565 25<240 480> 680 25<315 345.8> 710 20<337 425>
VStem: 40 70<86.8047 296.778> 355 70<25 30 54.1612 367.228 380 680>
LayerCount: 2
Fore
SplineSet
240 590 m 1x3f
 480 590 l 1
 480 565 l 1
 240 565 l 1
 240 590 l 1x3f
EndSplineSet
Refer: 42 100 N 1 0 0 1 0 0 2
Validated: 5
EndChar

StartChar: Oslash
Encoding: 216 216 316
Width: 630
VWidth: 0
Flags: W
HStem: -10 25<256.86 376.82> 635 25<234.913 382.902> 710 20G<451.707 515>
VStem: 35 70<186.823 460.826> 525 70<181.972 457.212>
LayerCount: 2
Fore
SplineSet
515 730 m 25
 175 -90 l 25
 120 -90 l 1
 460 730 l 25
 515 730 l 25
EndSplineSet
Refer: 13 79 N 1 0 0 1 0 0 2
Validated: 5
EndChar

StartChar: oslash
Encoding: 248 248 317
Width: 500
VWidth: 0
Flags: W
HStem: -10 25<207.267 301.425> 405 25<196.3 297.662>
VStem: 40 70<115.16 315.433> 390 70<101.723 312.748>
LayerCount: 2
Fore
SplineSet
440 510 m 29
 100 -110 l 29
 50 -110 l 1
 390 510 l 25
 440 510 l 29
EndSplineSet
Refer: 28 111 N 1 0 0 1 0 0 2
Validated: 5
EndChar

StartChar: Lslash
Encoding: 321 321 318
Width: 475
VWidth: 0
Flags: W
HStem: 0 25<10.0082 74.9393 145.076 424.924> 625 25<10 74.9237 145.076 210>
VStem: 75 70<25.0001 625> 425 25<25.0763 85>
LayerCount: 2
Fore
SplineSet
10 280 m 1
 270 400 l 1
 270 370 l 5
 10 250 l 5
 10 280 l 1
EndSplineSet
Refer: 7 76 N 1 0 0 1 0 0 2
Validated: 5
EndChar

StartChar: lslash
Encoding: 322 322 319
Width: 290
VWidth: 0
Flags: W
HStem: 0 25<40 104.939 175.076 240> 680 25<65 95.8> 710 20<87 175>
VStem: 15 260 105 70<25.0001 680>
LayerCount: 2
Fore
SplineSet
15 280 m 1xf0
 275 400 l 1
 275 370 l 1
 15 250 l 1
 15 280 l 1xf0
EndSplineSet
Refer: 30 108 N 1 0 0 1 20 0 2
Validated: 5
EndChar

StartChar: multiply
Encoding: 215 215 320
Width: 424
VWidth: 0
Flags: W
HStem: 45 330
VStem: 50 324
LayerCount: 2
Fore
SplineSet
71 45 m 25
 183 200 l 25
 50 375 l 25
 124 375 l 25
 218 246 l 17
 311 375 l 25
 343 375 l 25
 234 227 l 25
 374 45 l 25
 300 45 l 25
 200 182 l 17
 103 45 l 25
 71 45 l 25
EndSplineSet
Validated: 1
EndChar

StartChar: yen
Encoding: 165 165 321
Width: 580
VWidth: 0
Flags: W
HStem: 0 25<195 259.924 330.076 390> 145 25<160 430> 215 25<160 430> 625 25<5 80.1269 164.997 230 396 468.28 493.707 575>
VStem: 260 70<25.0001 290>
LayerCount: 2
Fore
SplineSet
160 170 m 1
 430 170 l 1
 430 145 l 1
 160 145 l 1
 160 170 l 1
160 240 m 1
 430 240 l 1
 430 215 l 1
 160 215 l 1
 160 240 l 1
EndSplineSet
Refer: 25 89 N 1 0 0 1 0 0 2
Validated: 5
EndChar

StartChar: section
Encoding: 167 167 324
Width: 495
VWidth: 0
Flags: W
HStem: -240 25<184.134 326.145> 635 25<176.92 300.407>
VStem: 35 60<196.923 337.408 426.863 565.304> 405 60<-149.944 -24.9412 77.5071 204.746> 415 25<595.661 640>
LayerCount: 2
Fore
SplineSet
84 370 m 1xf0
 55 399 35 436.853 35 490 c 0
 35 611 170 660 240 660 c 0
 310 660 384 615 395 595 c 1
 410 595 415 600 415 615 c 2
 415 640 l 1
 440 640 l 1
 440 500 l 1xe8
 431 545 329.006 635 240 635 c 0
 176.969 635 95 599.051 95 510 c 0
 95 391.999 179.5 381 240 360 c 1
 306.5 339 465 288.004 465 160 c 0
 465 106.429 444 69 413 43 c 1
 444 14 465 -22.7636 465 -70 c 0
 465 -206.004 331 -240 230 -240 c 0
 190 -240 70 -214 25 -130 c 1
 85 -90 l 1
 85 -160 189 -215 230 -215 c 0
 311 -215 405 -202.018 405 -90 c 0
 405 1.00586 300 39 240 60 c 1
 174 81 35 120.996 35 260 c 0
 35 306.852 55 343 84 370 c 1xf0
384 66 m 1
 397 84 405 107.655 405 140 c 0xf0
 405 231.006 300 269 240 290 c 0
 207.227 300.428 157 315 114 345 c 1
 102 328 95 306.142 95 280 c 0
 95 161.999 179.5 151 240 130 c 1
 274.795 119.012 335 100 384 66 c 1
EndSplineSet
Validated: 1
EndChar

StartChar: logicalnot
Encoding: 172 172 325
Width: 430
VWidth: 0
Flags: W
HStem: 180 50<60 320>
VStem: 320 50<90 180>
LayerCount: 2
Fore
SplineSet
370 230 m 5
 370 90 l 5
 320 90 l 1
 320 180 l 1
 60 180 l 1
 60 230 l 1
 370 230 l 5
EndSplineSet
Validated: 1
EndChar

StartChar: currency
Encoding: 164 164 329
Width: 380
VWidth: 0
Flags: W
HStem: 80 25<153.533 229.157> 295 25<151.721 226.862>
VStem: 80 30<147.898 253.567> 270 30<146.126 250.724>
LayerCount: 2
Fore
SplineSet
190 295 m 4
 146 295 110 250 110 200 c 0
 110 150 150 105 190 105 c 4
 236 105 270 151 270 200 c 4
 270 234 242 295 190 295 c 4
103 130 m 1
 88 153 80 180 80 200 c 0
 80 221 87 256 108 283 c 1
 40 375 l 1
 74 375 l 1
 127 302 l 1
 143 313 163 320 190 320 c 4
 215 320 235 314 250 304 c 5
 301 375 l 5
 333 375 l 5
 269 288 l 5
 295 259 300 218 300 200 c 4
 300 185 295 157 280 131 c 5
 344 45 l 5
 310 45 l 5
 262 108 l 5
 245 92 222 80 190 80 c 4
 160 80 137 92 119 110 c 1
 73 45 l 1
 41 45 l 1
 103 130 l 1
EndSplineSet
Validated: 1
EndChar

StartChar: uni00B5
Encoding: 181 181 330
Width: 475
VWidth: 0
Flags: HW
HStem: -230 21G<70 140> -10 25<190.861 290.573> 0 25<400.076 465> 370 25<30 60.8 290 320.8> 400 20G<52 140 312 400>
VStem: 70 70<-230 9.26395 54.498 370> 330 70<25 30 39.8009 370>
LayerCount: 2
Fore
SplineSet
70 -230 m 25xde
 70 350 l 2
 70 370 70 370 50 370 c 2
 40 370 l 2
 30 370 30 370 30 380 c 2
 30 395 l 1
 140 420 l 1
 140 160 l 2
 140 91 153.494 15 240 15 c 3xde
 287 15 330 46 330 90 c 6
 330 350 l 2
 330 370 330 370 310 370 c 2
 300 370 l 2
 290 370 290 370 290 380 c 2
 290 395 l 1
 400 420 l 1
 400 45 l 2
 400 25 400 25 420 25 c 2
 455 25 l 2xbe
 465 25 465 25 465 15 c 2xde
 465 0 l 1
 330 0 l 1xbe
 330 30 l 1
 317 8 280 -10 240 -10 c 3
 196.804 -10 164.329 -2.72493 140 9.26394 c 1
 140 -230 l 25
 70 -230 l 25xde
EndSplineSet
Validated: 1
EndChar

StartChar: uni00B5
Encoding: 181 181 331
Width: 475
VWidth: 0
Flags: W
HStem: -230 21G<70 140> -10 25<189.844 289.075> 0 25<400.076 465> 370 25<30 60.8 290 320.8> 400 20G<52 140 312 400>
VStem: 70 70<-230 9.26395 54.0914 370> 330 70<25 30 40.8069 370>
LayerCount: 2
Fore
SplineSet
70 -230 m 25xde
 70 350 l 2
 70 370 70 370 50 370 c 2
 40 370 l 2
 30 370 30 370 30 380 c 2
 30 395 l 1
 140 420 l 1
 140 160 l 2
 140 91 153.494 15 240 15 c 3xde
 287 15 330 45 330 90 c 2
 330 350 l 2
 330 370 330 370 310 370 c 2
 300 370 l 2
 290 370 290 370 290 380 c 2
 290 395 l 1
 400 420 l 1
 400 45 l 2
 400 25 400 25 420 25 c 2
 455 25 l 2xbe
 465 25 465 25 465 15 c 2xde
 465 0 l 1
 330 0 l 1xbe
 330 30 l 1
 317 8 280 -10 240 -10 c 3
 196.804 -10 164.329 -2.72493 140 9.26394 c 1
 140 -230 l 25
 70 -230 l 25xde
EndSplineSet
Validated: 1
EndChar

StartChar: uni030C
Encoding: 780 780 332
Width: 370
VWidth: 0
Flags: W
HStem: 510 155
VStem: 30 310
LayerCount: 2
Fore
SplineSet
185 510 m 1
 30 640 l 1
 40 665 l 1
 185 589.069 l 1
 330 665 l 1
 340 640 l 1
 185 510 l 1
EndSplineSet
Validated: 1
EndChar

StartChar: ordmasculine
Encoding: 186 186 334
Width: 380
VWidth: 0
Flags: W
HStem: 320 30<90 290> 420 25<151.424 231.249> 635 25<150.775 228.967>
VStem: 70 30<493.24 587.666> 280 30<491.825 584.306>
LayerCount: 2
Fore
SplineSet
90 350 m 1
 290 350 l 1
 290 320 l 1
 90 320 l 1
 90 350 l 1
EndSplineSet
Refer: 111 176 N 1 0 0 1 0 0 2
EndChar

StartChar: Thorn
Encoding: 222 222 335
Width: 420
VWidth: 0
Flags: W
HStem: 0 25<10 74.9393 145.076 205> 130 25<145 239.067> 485 25<145 234.748> 625 25<15 74.9237 145.076 211>
VStem: 75 70<25.0001 130 155 485 510 625> 335 70<225.318 411.052>
LayerCount: 2
Fore
SplineSet
75 605 m 2
 75 625 75 625 55 625 c 2
 25 625 l 2
 15 625 15 625 15 635 c 2
 15 650 l 1
 211 650 l 1
 211 635 l 2
 211 625 211 625 201 625 c 2
 165 625 l 2
 145 625 145 625 145 605 c 2
 145 510 l 1
 261.501 510 405 487 405 320 c 0
 405 152 258.501 130 145 130 c 1
 145 45 l 2
 145 25 145 25 165 25 c 2
 195 25 l 2
 205 25 205 25 205 15 c 2
 205 0 l 1
 10 0 l 1
 10 15 l 2
 10 25 10 25 20 25 c 2
 55 25 l 2
 75.252 25 75 25 75 45 c 2
 75 605 l 2
145 485 m 1
 145 155 l 1
 214.5 155 335 159 335 320 c 0
 335 467 221.321 485 145 485 c 1
EndSplineSet
Validated: 1
EndChar

StartChar: thorn
Encoding: 254 254 336
Width: 490
VWidth: 0
Flags: W
HStem: -230 25<5 69.9572 140.076 205> -10 25<191.815 297.043> 405 25<205.454 296.192> 680 25<30 60.8> 710 20G<52 140>
VStem: 70 70<-205 35 50.7703 351.777 360 680> 380 70<96.5504 318.68>
LayerCount: 2
Fore
SplineSet
140 35 m 1
 140 -185 l 18
 140 -205 140 -205 160 -205 c 2
 195 -205 l 2
 205 -205 205 -205 205 -215 c 10
 205 -230 l 25
 5 -230 l 25
 5 -215 l 18
 5 -205 5 -205 15 -205 c 2
 50 -205 l 2
 70.252 -205 70 -206 70 -185 c 2
 70 660 l 2
 70 680 70 680 50 680 c 2
 40 680 l 2
 30 680 30 680 30 690 c 2
 30 705 l 1
 140 730 l 1
 140 360 l 1
 152 407 219.85 430 250 430 c 3
 331.024 430 450 381.012 450 210 c 3
 450 32.9551 339.02 -10 240 -10 c 3
 193 -10 162 11 140 35 c 1
140 295 m 2
 140 100 l 2
 140 53 193 15 240 15 c 3
 351.005 15 380 120.978 380 210 c 3
 380 313 342.044 405 240 405 c 3
 200.949 405 140 345 140 295 c 2
EndSplineSet
Validated: 1
EndChar

StartChar: uni00B9
Encoding: 185 185 337
Width: 330
VWidth: 0
Flags: W
HStem: 430 25<90 154.939 180.076 245> 640 20G<158.947 180>
VStem: 155 25<455.076 580.375>
LayerCount: 2
Fore
SplineSet
80 530 m 10
 80 565 l 25
 180 660 l 25
 180 475 l 18
 180 455 180 455 200 455 c 2
 235 455 l 2
 245 455 245 455 245 445 c 10
 245 430 l 25
 90 430 l 25
 90 445 l 18
 90 455 90 455 100 455 c 2
 135 455 l 2
 155.252 455 155 455 155 475 c 10
 155 562 l 18
 155 582 149.532 595.739 135 582 c 2
 80 530 l 10
EndSplineSet
Validated: 1
EndChar

StartChar: uni00B2
Encoding: 178 178 338
Width: 320
VWidth: 0
Flags: W
HStem: 430 25<126.649 240> 635 25<120.108 179.546>
VStem: 190 30<569.859 626.58>
LayerCount: 2
Fore
SplineSet
240 430 m 25
 80 430 l 1
 80 455 l 2
 80 464.667 80.9932 469.813 85 475 c 1
 102 495 190 566.984 190 600 c 3
 190 617.507 173 635 150 635 c 3
 122 635 96 603 80 560 c 1
 80 615 l 1
 96 648 131.973 660 150 660 c 3
 206.009 660 220 633.541 220 600 c 3
 220 557.988 125 475 125 475 c 2
 112.896 459.074 120 455 140 455 c 2
 240 455 l 25
 240 430 l 25
EndSplineSet
Validated: 1
EndChar

StartChar: uni00B3
Encoding: 179 179 339
Width: 320
VWidth: 0
Flags: W
HStem: 420 25<107.374 193.535> 625 25<80 203.359>
VStem: 210 30<458.779 518.434>
LayerCount: 2
Fore
SplineSet
80 650 m 1
 240 650 l 1
 240 625 l 2
 240 615.333 240.577 608.443 235 605 c 2
 154 555 l 1
 236.5 540 240 509.235 240 490 c 3
 240 455.985 209.041 420 160 420 c 3
 117.988 420 97 427 80 446 c 9
 80 480 l 17
 101 451 138.787 445 160 445 c 3
 186.02 445 210 464.92 210 490 c 3
 210 507.029 197.25 540 100 540 c 1
 205 605 l 2
 222.009 615.529 210 625 190 625 c 2
 80 625 l 17
 80 650 l 1
EndSplineSet
Validated: 1
EndChar

StartChar: onequarter
Encoding: 188 188 340
Width: 465
VWidth: 0
Flags: W
HStem: 0 21G<20 76.6923 360 390> 42 25<300 360 390 425> 200 20<339.542 390> 430 25<20 84.9393 110.076 175> 630 20G<388.308 445> 640 20<88.9474 110>
VStem: 85 25<455.076 580.375> 360 30<0 42 67 188.45>
LayerCount: 2
Fore
SplineSet
445 650 m 25xfb
 65 0 l 25
 20 0 l 1
 400 650 l 25
 445 650 l 25xfb
EndSplineSet
Refer: 343 8308 S 1 0 0 1 190 -430 2
Refer: 337 185 N 1 0 0 1 -70 0 2
Validated: 1
EndChar

StartChar: onehalf
Encoding: 189 189 341
Width: 465
VWidth: 0
Flags: W
HStem: 0 21G<20 76.6923> 0 25<331.649 445> 205 25<325.108 384.546> 430 25<20 84.9393 110.076 175> 630 20G<388.308 445> 640 20<88.9474 110>
VStem: 85 25<455.076 580.375> 395 30<139.859 196.58>
LayerCount: 2
Fore
SplineSet
445 650 m 25xbb
 65 0 l 25
 20 0 l 1
 400 650 l 25
 445 650 l 25xbb
EndSplineSet
Refer: 338 178 N 1 0 0 1 205 -430 2
Refer: 337 185 S 1 0 0 1 -70 0 2
Validated: 1
EndChar

StartChar: threequarters
Encoding: 190 190 342
Width: 465
VWidth: 0
Flags: W
HStem: 0 21G<20 76.6923 360 390> 42 25<300 360 390 425> 200 20<339.542 390> 420 25<47.3736 133.535> 625 25<20 143.359> 630 20G<388.308 445>
VStem: 150 30<458.779 518.434> 360 30<0 42 67 188.45>
LayerCount: 2
Fore
SplineSet
445 650 m 25xf7
 65 0 l 25
 20 0 l 1
 400 650 l 25
 445 650 l 25xf7
EndSplineSet
Refer: 343 8308 N 1 0 0 1 190 -430 2
Refer: 339 179 N 1 0 0 1 -60 0 2
Validated: 1
EndChar

StartChar: uni2074
Encoding: 8308 8308 343
Width: 315
VWidth: 0
Flags: W
HStem: 430 21G<170 200> 472 25<110 170 200 235> 630 20G<149.542 200>
VStem: 170 30<430 472 497 618.45>
LayerCount: 2
Fore
SplineSet
170 497 m 25
 170 618.45 l 1
 110 497 l 25
 170 497 l 25
160 650 m 1
 200 650 l 1
 200 497 l 1
 235 497 l 1
 235 472 l 1
 200 472 l 1
 200 430 l 2
 170 430 l 2
 170 472 l 1
 80 472 l 1
 80 497 l 25
 160 650 l 1
EndSplineSet
Validated: 1
EndChar

StartChar: eth
Encoding: 240 240 344
Width: 440
VWidth: 0
Flags: W
HStem: -10 25<171.191 258.451> 330 25<157.783 243.697> 635 25<150 184.866>
VStem: 40 70<84.2942 275.939> 330 70<141.788 418.357>
LayerCount: 2
Fore
SplineSet
140 480 m 1
 400 610 l 1
 400 580 l 1
 140 450 l 1
 140 480 l 1
295 300 m 9
 295 275 l 17
 261.847 313.623 227 330 200 330 c 3
 131.993 330 110 258.768 110 180 c 3
 110 142.996 126 15 210 15 c 3
 310.499 15 330 138.893 330 280 c 3
 330 473.041 228 635 150 635 c 0
 150 660 l 0
 252 660 400 491.009 400 280 c 3
 400 111 318.005 -10 210 -10 c 3
 119.95 -10 40 64.9785 40 180 c 3
 40 279.016 93.8311 355 200 355 c 3
 234 355 267.015 339.767 295 300 c 9
EndSplineSet
Validated: 5
EndChar

StartChar: germandbls
Encoding: 223 223 345
Width: 505
VWidth: 0
Flags: W
HStem: -10 25<252.73 341.946> 0 25<20 64.9392 135.076 180> 390 24.999<210 265.492> 715 25<179.498 293.032>
VStem: 65 70<25.0001 665.8> 350 70<502.118 664.102> 420 70<84.8085 258.074>
LayerCount: 2
Fore
SplineSet
65 570 m 2x7c
 65 724.013 175.994 740 255 740 c 3
 334 740 420 692.04 420 580 c 3x7c
 420 487 332 405 260 405 c 1
 384 405 490 268 490 190 c 3
 490 34.9023 404 -10 290 -10 c 3
 242.997 -10 230 9 230 41 c 9
 230 100 l 17
 230 53 243 15 290 15 c 3
 360 15 420 70.9902 420 190 c 3xba
 420 271 307.25 390 210 390 c 9
 210 414.999 l 17
 280 414.999 350 483 350 580 c 3
 350 676.083 304.008 715 240 715 c 3
 181.69 715 135 689 135 630 c 2
 135 45 l 2
 135 25 135 25 155 25 c 2
 170 25 l 2x7c
 180 25 180 25 180 15 c 2xbc
 180 0 l 1
 20 0 l 1x7c
 20 15 l 2xbc
 20 25 20 25 30 25 c 2
 45 25 l 2
 65.25 25.25 65 25 65 45 c 2
 65 570 l 2x7c
EndSplineSet
Validated: 524289
EndChar

StartChar: AE
Encoding: 198 198 346
Width: 705
VWidth: 0
Flags: W
HStem: 0 25<5 78.0775 108.833 171 285 345.001 405.076 664.924> 275 25<213 345> 335 25<405 584.924> 405 20G<590 610> 625 25<405.076 654.924>
VStem: 345 60<25 275 300 335 360 619.742> 585 25<275 334.921 360.06 425> 655 25<565 624.924> 665 25<25.0763 85>
LayerCount: 2
Fore
SplineSet
285 0 m 9xfe80
 285 15 l 18
 285 25 285 25 295 25 c 2
 330 25 l 2
 342 25 350 28 345 45 c 9
 345 275 l 25
 203 275 l 17
 109 45 l 1
 105.333 32.667 109 25 122 25 c 2
 161 25 l 2
 171 25 171 25 171 15 c 10
 171 0 l 25
 5 0 l 25
 5 15 l 18
 5 25 5 25 15 25 c 2
 55 25 l 2
 70 25 77 33 82 45 c 1
 320 630 l 2
 326 644.999 365 650 405 650 c 1
 680 650 l 1
 680 565 l 1xff
 665 565 l 2xfe80
 655 565 655 565 655 575 c 2
 655 605 l 2xff
 655 625 655 625 635 625 c 2
 425 625 l 2
 405 625 405 625 405 605 c 2
 405 360 l 1
 565 359.999 l 2
 585 359.999 585 359.748 585 380 c 2
 585 415 l 2
 585 425 585 425 595 425 c 2
 610 425 l 1
 610 275 l 1
 595 275 l 2
 585 275 585 275 585 285 c 2
 585 315 l 2
 585 335 585.001 334.997 565.001 334.997 c 2
 405 335 l 1
 405 45 l 2
 405 25 405 25 425 25 c 2
 645 25 l 2
 665 25 665 25 665 45 c 2
 665 75 l 2
 665 85 665 85 675 85 c 2
 690 85 l 1
 690 0 l 1
 285 0 l 9xfe80
345 620 m 25
 213 300 l 25
 345 300 l 25
 345 620 l 25
EndSplineSet
Validated: 524289
EndChar

StartChar: ordfeminine
Encoding: 170 170 347
Width: 380
VWidth: 0
Flags: W
HStem: 320 30<90 290> 420 25<124.178 208.364> 430 21G<255 285> 545 25<190.169 255> 635 25<141.345 235.199>
VStem: 85 30<452.524 511.158> 255 30<430 460 480.302 545 567.722 618.685>
LayerCount: 2
Fore
SplineSet
255 430 m 1xbe
 255 460 l 1
 242 438 211 420 165 420 c 3xde
 126.36 420 85 430.991 85 490 c 3
 85 534.045 152 554 255 570 c 1
 255 590 l 2
 255 615 226 635 195 635 c 3
 150.954 635 121 620 105 575 c 5
 85 605 l 5
 107 641 152.952 660 195 660 c 3
 256.074 660 285 637 285 610 c 2
 285 430 l 25
 255 430 l 1xbe
255 545 m 1
 136 529 115 512.389 115 480 c 3
 115 450.931 142 445 165 445 c 3
 198.241 445 255 477 255 510 c 2
 255 545 l 1
90 350 m 1
 290 350 l 1
 290 320 l 1
 90 320 l 1
 90 350 l 1
EndSplineSet
Validated: 524289
EndChar

StartChar: registered
Encoding: 174 174 348
Width: 670
VWidth: 0
Flags: W
HStem: -10 25<268.205 405.298> 130 35<481.734 505> 140 25<190 234.939 295.076 355> 320 25<295 351.473> 505 25<190 234.924 295.076 378.985> 635 25<250.575 410.502>
VStem: 15 50<198.814 444.88> 235 60<165 320 345 505> 405 60<362.939 488.485> 605 50<193.963 437.505>
LayerCount: 2
Fore
SplineSet
315.004 344.999 m 2x9fc0
 378.501 344.999 405 368.499 405 420 c 3
 405 457.084 405 505 325 505 c 2
 315 505 l 2
 295 505 295 505 295 485 c 2
 295 345 l 1
 315.004 344.999 l 2x9fc0
505 130 m 17xdfc0
 370 130 416.501 319.982 315.001 319.997 c 2
 295 320 l 1
 295 185 l 2
 295 165 295 165 315 165 c 2
 330 165 l 2
 345 165 l 2
 355 165 355 164.998 355 155 c 2
 355 140 l 1
 190 140 l 1
 190 155 l 2
 190 164.998 190 165 200 165 c 2
 215 165 l 2
 235.252 165 235 165 235 185 c 2
 235 485 l 2
 235 505 235 505 215 505 c 2
 200 505 l 2
 190 505 190 505 190 515 c 2
 190 530 l 1
 355 530 l 2
 413 530 465 505.002 465 420 c 3
 465 354.992 412 330 375 325 c 1
 464 319 429 165 525 165 c 9xbfc0
 505 130 l 17xdfc0
335 15 m 3
 423 15 605 86 605 310 c 3
 605 527 467.004 635 335 635 c 3
 176.921 635 65 534.02 65 310 c 3
 65 81.998 258.993 15 335 15 c 3
335 -10 m 3
 222.982 -10 15 92 15 310 c 3
 15 533.002 164.974 660 335 660 c 3
 503.027 660 655 523.021 655 310 c 3
 655 82.998 450.018 -10 335 -10 c 3
EndSplineSet
Validated: 524289
EndChar

StartChar: copyright
Encoding: 169 169 349
Width: 670
VWidth: 0
Flags: W
HStem: -10 25<268.205 405.298> 140 25<307.773 390.496> 505 25<298.381 390.159> 635 25<250.575 410.502>
VStem: 15 50<198.814 444.88> 180 70<231.165 443.592> 605 50<193.963 437.505>
LayerCount: 2
Fore
SplineSet
430 440 m 1
 421 485 383.64 505 330 505 c 3
 282.332 505 250 439.225 250 330 c 3
 250 238.862 290.997 165 340 165 c 3
 380.852 165 422 181 435 250 c 1
 485 220 l 1
 463.5 163 379.747 140 340 140 c 3
 238.495 140 180 232.896 180 330 c 3
 180 445.01 231.495 530 330 530 c 3
 380.09 530 455.5 519 480 465 c 1
 430 440 l 1
335 15 m 3
 423 15 605 86 605 310 c 3
 605 527 467.004 635 335 635 c 3
 176.921 635 65 534.02 65 310 c 3
 65 81.998 258.993 15 335 15 c 3
335 -10 m 3
 222.982 -10 15 92 15 310 c 3
 15 533.002 164.974 660 335 660 c 3
 503.027 660 655 523.021 655 310 c 3
 655 82.998 450.018 -10 335 -10 c 3
EndSplineSet
Validated: 524289
EndChar
